<svg width="32" height="32" viewBox="0 0 32 32" fill="none" xmlns="http://www.w3.org/2000/svg">
<path d="M14.5333 2.8C8.4 3.46667 3.46666 8.40001 2.8 14.4C2.13333 20.6667 5.73333 26.2667 11.2 28.4C11.6 28.5333 12 28.2667 12 27.7333V25.6C12 25.6 11.4667 25.7333 10.8 25.7333C8.93333 25.7333 8.13333 24.1333 8 23.2C7.86666 22.6667 7.6 22.2667 7.2 21.8667C6.8 21.7333 6.66666 21.7333 6.66666 21.6C6.66666 21.3333 7.06666 21.3333 7.2 21.3333C8 21.3333 8.66666 22.2667 8.93333 22.6667C9.6 23.7333 10.4 24 10.8 24C11.3333 24 11.7333 23.8667 12 23.7333C12.1333 22.8 12.5333 21.8667 13.3333 21.3333C10.2667 20.6667 8 18.9333 8 16C8 14.5333 8.66666 13.0667 9.6 12C9.46666 11.7333 9.33333 11.0667 9.33333 10.1333C9.33333 9.60001 9.33333 8.93334 9.6 8.40001C9.6 8.13334 9.86666 8.00001 10 8.00001H10.1333C10.8 8.13334 12.1333 8.53334 13.3333 9.73334C14.1333 9.46667 15.0667 9.33334 16 9.33334C16.9333 9.33334 17.8667 9.46667 18.6667 9.73334C19.8667 8.53334 21.3333 8.13334 22 8.00001H22.1333C22.4 8.00001 22.5333 8.13334 22.6667 8.40001C22.6667 8.93334 22.6667 9.60001 22.6667 10.1333C22.6667 11.2 22.5333 11.7333 22.4 12C23.3333 13.0667 24 14.4 24 16C24 18.9333 21.7333 20.6667 18.6667 21.3333C19.4667 22 20 23.2 20 24.4V27.8667C20 28.2667 20.4 28.6667 20.9333 28.5333C25.8667 26.5333 29.3333 21.7333 29.3333 16.1333C29.3333 8.13334 22.5333 1.86667 14.5333 2.8Z" fill="white"/>
</svg>
