<svg width="219" height="258" viewBox="0 0 219 258" fill="none" xmlns="http://www.w3.org/2000/svg">
<g filter="url(#filter0_di_1_49)">
<path d="M-47.81 31.4015C-84.399 40.6762 -105.128 86.114 -93.5234 131.897C-89.049 149.548 -78.8078 175.549 -42.7904 166.419C-25.934 162.146 -0.0174964 188.81 24.3791 191.375C36.2559 192.623 63.9955 189.243 85.1246 176.585C108.367 162.663 120.89 145.616 123.172 132.26C134.738 64.5909 71.9023 88.0631 60.9554 90.838C36.9438 96.9245 12.539 70.255 5.21193 60.552C-2.47683 50.3699 -20.3399 24.4384 -47.81 31.4015Z" fill="url(#paint0_linear_1_49)"/>
</g>
<g filter="url(#filter1_di_1_49)">
<path d="M83.4581 141.207C65.8881 148.703 56.6397 157.824 51.2199 162.846C39.6841 173.534 31.3452 192.186 25.5775 200.903C9.87458 224.636 -1.80539 228.531 -18.6618 232.804C-35.1308 236.979 -57.6091 230.686 -76.6251 217.764C-98.4415 202.94 -117.559 176.293 -123.76 151.832C-135.365 106.049 -120.909 75.8446 -86.5903 70.4366C-56.7519 65.7346 -35.1652 73.3178 -3.33255 65.2488C12.6751 61.1912 27.1047 55.7082 52.4698 26.158C71.2588 4.26892 113.317 7.53922 126.533 15.9023C139.577 24.1562 149.207 38.143 154.408 53.8609C158.517 66.2792 161.517 84.3061 160.985 96.6096C160.453 108.913 151.362 128.254 130.209 133.616C114.154 137.685 90.1342 138.359 83.4581 141.207Z" fill="url(#paint1_radial_1_49)"/>
<path d="M83.2618 140.747C66.5529 147.876 57.326 156.474 51.7861 161.636C51.4725 161.928 51.1707 162.209 50.88 162.479C45.058 167.873 40.0598 175.259 35.8067 182.357C33.9564 185.445 32.2425 188.486 30.6621 191.291C30.425 191.712 30.1908 192.127 29.9597 192.537C28.1851 195.681 26.591 198.465 25.1605 200.627C17.3332 212.457 10.5335 219.305 3.62083 223.73C-3.29504 228.157 -10.3592 230.184 -18.7847 232.319C-35.0606 236.445 -57.3902 230.23 -76.344 217.351C-98.0653 202.591 -117.106 176.045 -123.275 151.709C-129.062 128.88 -128.33 110.012 -121.943 96.2037C-115.567 82.4214 -103.526 73.6115 -86.5124 70.9305C-73.4362 68.87 -61.9551 69.1771 -50.4474 69.4849C-48.8737 69.527 -47.2995 69.5691 -45.7207 69.6052C-32.602 69.9049 -19.1928 69.7849 -3.20969 65.7335C4.8177 63.6987 12.4847 61.2975 21.3275 55.6852C30.1626 50.0779 40.1478 41.2807 52.8492 26.4836C62.1177 15.6859 77.1694 11.054 91.6212 10.1847C98.8379 9.75056 105.88 10.2568 111.935 11.3899C117.999 12.5247 123.037 14.2815 126.266 16.3248C139.191 24.5033 148.76 38.3832 153.933 54.0179C158.028 66.391 161.014 84.3567 160.486 96.588C159.961 108.729 150.973 127.837 130.086 133.131C122.097 135.156 112.113 136.339 103.259 137.373L102.86 137.419C98.5902 137.918 94.5946 138.384 91.246 138.898C87.8085 139.424 84.9964 140.007 83.2618 140.747Z" stroke="white" stroke-opacity="0.05"/>
</g>
<path d="M-78.4841 56.8098L-78.4734 56.8071L-78.4629 56.8039C-59.3357 51.0486 -46.4704 52.1058 -34.387 53.6026C-33.461 53.7173 -32.5392 53.8347 -31.6192 53.9519C-20.5135 55.366 -9.67357 56.7463 5.12193 52.9959C9.17205 51.9693 14.9381 49.6312 21.5705 46.582C28.2114 43.5289 35.7507 39.7487 43.3579 35.8223C49.2693 32.7712 55.2183 29.6336 60.8216 26.6784C69.6533 22.0204 77.6259 17.8156 83.2376 15.1167C110.224 2.13795 134.141 3.4232 153.362 10.0444C162.563 13.2138 174.331 21.555 182.655 40.0836C187.959 51.8892 189.405 68.6875 183.08 87.0622C178.452 100.504 170.542 114.063 161.245 123.739C151.931 133.434 141.336 139.123 131.318 137.115C116.541 134.152 106.217 133.723 98.7345 134.401C91.2418 135.08 86.6173 136.867 83.2507 138.303C65.6107 145.829 55.578 154.483 50.1324 159.529C44.3215 164.913 39.0804 171.913 34.5789 178.639C32.3267 182.004 30.256 185.306 28.3899 188.308C28.1103 188.758 27.8353 189.201 27.5651 189.636C26.0299 192.11 24.6475 194.337 23.4257 196.183C15.591 208.025 9.25189 214.907 2.80134 219.364C-3.64603 223.819 -10.2414 225.879 -18.6595 228.012C-34.9574 232.144 -58.1631 227.263 -77.0917 214.401C-98.813 199.641 -117.854 173.095 -124.023 148.759C-135.573 103.191 -113.53 65.6932 -78.4841 56.8098Z" stroke="white"/>
<g filter="url(#filter2_i_1_49)">
<path d="M110.432 173.213C114.194 188.053 102.951 203.706 81.7979 209.067C66.958 212.829 59.0207 200.821 55.2591 185.981C51.4974 171.141 62.0483 155.055 76.8882 151.294C91.7282 147.532 106.671 158.373 110.432 173.213Z" fill="url(#paint2_radial_1_49)"/>
</g>
<path d="M150.937 92.9751C151.898 96.764 155.748 99.0569 159.537 98.0965C163.326 97.1361 166.335 93.7128 165.375 89.9239C164.414 86.135 159.848 83.4152 156.059 84.3756C152.27 85.3361 149.977 89.1862 150.937 92.9751Z" stroke="white"/>
<path d="M48.3371 11.0333L51.3931 5.98895M52.3873 10.0391L47.3429 6.98315" stroke="white"/>
<path d="M138.262 39.3477L141.318 34.3034M142.312 38.3535L137.268 35.2976" stroke="white"/>
<defs>
<filter id="filter0_di_1_49" x="-106.75" y="16.2303" width="241.336" height="181.387" filterUnits="userSpaceOnUse" color-interpolation-filters="sRGB">
<feFlood flood-opacity="0" result="BackgroundImageFix"/>
<feColorMatrix in="SourceAlpha" type="matrix" values="0 0 0 0 0 0 0 0 0 0 0 0 0 0 0 0 0 0 127 0" result="hardAlpha"/>
<feOffset dy="-4"/>
<feGaussianBlur stdDeviation="5"/>
<feComposite in2="hardAlpha" operator="out"/>
<feColorMatrix type="matrix" values="0 0 0 0 0 0 0 0 0 0 0 0 0 0 0 0 0 0 0.15 0"/>
<feBlend mode="normal" in2="BackgroundImageFix" result="effect1_dropShadow_1_49"/>
<feBlend mode="normal" in="SourceGraphic" in2="effect1_dropShadow_1_49" result="shape"/>
<feColorMatrix in="SourceAlpha" type="matrix" values="0 0 0 0 0 0 0 0 0 0 0 0 0 0 0 0 0 0 127 0" result="hardAlpha"/>
<feOffset dy="3"/>
<feGaussianBlur stdDeviation="2"/>
<feComposite in2="hardAlpha" operator="arithmetic" k2="-1" k3="1"/>
<feColorMatrix type="matrix" values="0 0 0 0 1 0 0 0 0 1 0 0 0 0 1 0 0 0 0.17 0"/>
<feBlend mode="normal" in2="shape" result="effect2_innerShadow_1_49"/>
</filter>
<filter id="filter1_di_1_49" x="-136.707" y="5.53027" width="302.753" height="238.555" filterUnits="userSpaceOnUse" color-interpolation-filters="sRGB">
<feFlood flood-opacity="0" result="BackgroundImageFix"/>
<feColorMatrix in="SourceAlpha" type="matrix" values="0 0 0 0 0 0 0 0 0 0 0 0 0 0 0 0 0 0 127 0" result="hardAlpha"/>
<feOffset dx="-2" dy="3"/>
<feGaussianBlur stdDeviation="3.5"/>
<feComposite in2="hardAlpha" operator="out"/>
<feColorMatrix type="matrix" values="0 0 0 0 0 0 0 0 0 0 0 0 0 0 0 0 0 0 0.2 0"/>
<feBlend mode="normal" in2="BackgroundImageFix" result="effect1_dropShadow_1_49"/>
<feBlend mode="normal" in="SourceGraphic" in2="effect1_dropShadow_1_49" result="shape"/>
<feColorMatrix in="SourceAlpha" type="matrix" values="0 0 0 0 0 0 0 0 0 0 0 0 0 0 0 0 0 0 127 0" result="hardAlpha"/>
<feOffset dx="-2" dy="-1"/>
<feGaussianBlur stdDeviation="7"/>
<feComposite in2="hardAlpha" operator="arithmetic" k2="-1" k3="1"/>
<feColorMatrix type="matrix" values="0 0 0 0 0.774075 0 0 0 0 0.0261285 0 0 0 0 0.895833 0 0 0 1 0"/>
<feBlend mode="normal" in2="shape" result="effect2_innerShadow_1_49"/>
</filter>
<filter id="filter2_i_1_49" x="50.4931" y="146.542" width="60.657" height="63.2218" filterUnits="userSpaceOnUse" color-interpolation-filters="sRGB">
<feFlood flood-opacity="0" result="BackgroundImageFix"/>
<feBlend mode="normal" in="SourceGraphic" in2="BackgroundImageFix" result="shape"/>
<feColorMatrix in="SourceAlpha" type="matrix" values="0 0 0 0 0 0 0 0 0 0 0 0 0 0 0 0 0 0 127 0" result="hardAlpha"/>
<feOffset dx="-4" dy="-4"/>
<feGaussianBlur stdDeviation="3"/>
<feComposite in2="hardAlpha" operator="arithmetic" k2="-1" k3="1"/>
<feColorMatrix type="matrix" values="0 0 0 0 1 0 0 0 0 0.782353 0 0 0 0 0 0 0 0 1 0"/>
<feBlend mode="hard-light" in2="shape" result="effect1_innerShadow_1_49"/>
</filter>
<linearGradient id="paint0_linear_1_49" x1="-76.4923" y1="52.666" x2="113.211" y2="148.171" gradientUnits="userSpaceOnUse">
<stop stop-color="#EF613A"/>
<stop offset="0.438668" stop-color="#DD5732"/>
<stop offset="1" stop-color="#E94B4F"/>
</linearGradient>
<radialGradient id="paint1_radial_1_49" cx="0" cy="0" r="1" gradientUnits="userSpaceOnUse" gradientTransform="translate(147.477 40.9182) rotate(150.387) scale(282.613 193.353)">
<stop offset="0.0510431" stop-color="#69CBF0"/>
<stop offset="0.695859" stop-color="#EB15C2"/>
<stop offset="1" stop-color="#FFD64B"/>
</radialGradient>
<radialGradient id="paint2_radial_1_49" cx="0" cy="0" r="1" gradientUnits="userSpaceOnUse" gradientTransform="translate(91.727 183.43) rotate(-157.84) scale(41.7582 66.4789)">
<stop stop-color="#F026E0"/>
<stop offset="1" stop-color="#4A88FF"/>
</radialGradient>
</defs>
</svg>
