<svg width="266" height="339" viewBox="0 0 266 339" fill="none" xmlns="http://www.w3.org/2000/svg">
<g filter="url(#filter0_f_1_5)">
<ellipse cx="61.7855" cy="205.382" rx="37.3122" ry="67.1619" transform="rotate(-44.3662 61.7855 205.382)" fill="#4A27EF" fill-opacity="0.69"/>
</g>
<g filter="url(#filter1_f_1_5)">
<ellipse cx="62.2221" cy="204.934" rx="26.0665" ry="46.9197" transform="rotate(12.8915 62.2221 204.934)" fill="#4A27EF" fill-opacity="0.69"/>
</g>
<g filter="url(#filter2_diii_1_5)">
<path d="M95.4826 197.082C95.1012 191.819 92.0163 179.521 91.3005 178.054C90.728 176.881 83.204 173.408 79.5136 171.818C77.1886 170.288 71.9898 166.553 69.7949 163.846C68.5362 162.294 67.1888 160.403 65.9731 158.696C64.5387 156.683 63.2876 154.927 62.5816 154.289C61.2773 153.109 56.5456 144.157 55.6948 141.666C55.4425 140.928 54.4193 140.106 53.0753 139.312C52.7445 139.116 52.3943 138.922 52.0313 138.731M95.4826 197.082C94.0421 194.031 90.8294 186.711 89.5027 181.837C87.7476 180.699 84.3898 179.577 81.1964 178.51M95.4826 197.082C95.6329 199.156 96.1442 201.506 96.7698 203.718M52.0313 138.731C49.8898 137.606 47.3056 136.593 45.6576 136.029C40.9904 147.871 30.921 171.842 27.9812 172.985C25.0414 174.129 39.9299 208.928 47.7416 226.185C60.7397 237.642 88.4904 260.718 95.5087 261.362C98.2193 261.611 99.3047 260.877 99.9313 258.478L99.932 258.475M52.0313 138.731C47.3366 149.739 37.0026 171.933 35.5769 174.365C37.1105 176.627 41.9505 180.276 43.4269 179.253C43.4461 177.5 50.6432 150.818 50.6432 150.818C51.1501 145.129 50.6715 145.242 51.2244 141.924C51.2365 140.688 51.4392 140.11 52.0313 138.731ZM96.7698 203.718C97.7311 207.117 98.9626 210.189 99.5695 211.433C100.371 213.076 102.692 224.803 103.752 230.461C101.493 231.805 97.2274 235.46 98.2388 239.325L98.2678 239.436C99.0129 242.283 100.617 249.837 100.357 255.364M96.7698 203.718C95.2322 204.711 91.1056 206.482 86.8997 205.628C84.9107 205.224 83.3968 205.13 82.6239 205.024C81.7997 200.813 78.3571 184.296 76.2053 176.739C77.5074 177.271 79.148 177.825 80.8542 178.396M100.357 255.364C99.7962 254.548 98.5319 252.622 97.9594 251.448C97.4757 250.457 96.7451 247.595 96.148 245.256C95.8616 244.134 95.6059 243.133 95.4229 242.515C94.8584 240.611 95.3198 238.57 96.3619 236.972C97.2181 235.659 96.1838 234.715 95.153 233.774C94.929 233.57 94.7053 233.365 94.5011 233.158C93.7774 232.421 93.2703 231.942 92.7633 231.463C88.6658 231.906 81.5773 236.287 80.8261 237.268C84.8675 241.14 95.2286 256.074 98.4689 257.885C98.5172 257.9 98.8719 257.95 98.9185 257.964C99.2881 258.091 99.6577 258.218 99.932 258.475M100.357 255.364C100.303 256.508 100.169 257.564 99.932 258.475M54.5147 226.455L54.5102 226.451M54.5147 226.455C54.5132 226.454 54.5117 226.452 54.5102 226.451M54.5147 226.455L54.5179 226.458M54.5147 226.455C54.5157 226.456 54.5168 226.457 54.5179 226.458M81.1964 178.51C81.0821 178.472 80.968 178.434 80.8542 178.396M81.1964 178.51L80.8542 178.396M54.5102 226.451C54.2025 226.188 53.9443 225.968 53.7467 225.798C57.1987 226.003 66.1939 229.338 69.6354 231.349C73.9372 233.864 76.8818 236.117 79.4569 238.244C80.3933 239.017 90.8478 248.985 96.3314 257.073C95.4503 256.708 94.1051 256.139 93.3776 255.5C90.1884 252.697 83.9291 249.576 79.747 248.472C75.5649 247.368 69.6767 241.273 66.3524 237.446C63.75 234.451 58.6523 230.001 55.6566 227.431C55.2306 227.066 54.847 226.739 54.5193 226.459L54.5179 226.458M60.2437 218.402C60.8613 219.917 63.9309 225.231 64.7517 225.121C65.4008 225.034 65.5532 212.357 66.3645 204.038C68.9294 199.404 74.1173 202.716 75.2261 203.097C76.1611 203.419 80.4181 205.485 82.3961 206.672C85.1897 214.963 89.9508 228.674 91.0256 229.768C88.2518 231.45 82.1323 235.155 79.8446 236.517C72.272 232.042 55.9912 222.746 51.4482 221.357C51.3463 221.036 51.2553 220.749 51.1702 220.516C44.7084 202.842 39.3429 188.462 36.4598 180.802C36.7334 179.189 40.9629 180.143 43.4409 179.549C45.2443 184.804 55.0637 207.334 60.2437 218.402ZM74.6376 176.013C74.8867 177.119 77.5348 183.212 78.5879 187.926C79.4064 191.59 80.9454 199.692 81.7855 204.854C78.8117 204.495 71.4392 198.487 70.0941 196.99C69.018 195.793 66.6327 191.401 65.5745 189.355C62.7637 180.619 53.9092 158.143 53.0328 154.88C52.0064 150.46 52.8762 148.068 54.5627 141.833C57.0829 149.927 71.8365 172.514 74.6376 176.013Z" stroke="black" shape-rendering="crispEdges"/>
</g>
<g filter="url(#filter3_diii_1_5)">
<path d="M54.9087 203.274C54.6694 199.988 52.7414 192.309 52.2944 191.393C51.9369 190.66 47.2412 188.49 44.9381 187.496C43.487 186.541 40.2421 184.207 38.8718 182.516C38.0861 181.547 37.2449 180.366 36.4859 179.3C35.5903 178.043 34.8092 176.946 34.3686 176.547C33.5544 175.81 30.5997 170.22 30.0682 168.664C29.9106 168.203 29.2719 167.69 28.4331 167.194C28.2266 167.071 28.008 166.95 27.7815 166.831M54.9087 203.274C54.0091 201.369 52.0026 196.798 51.1735 193.754C50.0781 193.044 47.9827 192.342 45.9898 191.675M54.9087 203.274C55.003 204.569 55.3226 206.037 55.7135 207.418M27.7815 166.831C26.445 166.128 24.8323 165.495 23.8038 165.142C20.8946 172.535 14.6175 187.499 12.7834 188.212C10.9493 188.925 20.2481 210.657 25.1268 221.433C33.2401 228.59 50.5617 243.004 54.9411 243.408C56.6325 243.564 57.3096 243.107 57.7 241.609L57.7004 241.607M27.7815 166.831C24.8549 173.703 18.4123 187.557 17.5233 189.075C18.4808 190.488 21.5017 192.768 22.4227 192.129C22.4343 191.035 26.9184 174.377 26.9184 174.377C27.2332 170.825 26.9347 170.896 27.2788 168.824C27.286 168.052 27.4124 167.692 27.7815 166.831ZM55.7135 207.418C56.3143 209.54 57.0834 211.459 57.4624 212.236C57.963 213.262 59.4138 220.584 60.0767 224.117C58.6675 224.956 56.0071 227.237 56.6391 229.65L56.6572 229.719C57.1229 231.497 58.1254 236.214 57.9646 239.665M55.7135 207.418C54.7544 208.037 52.1799 209.142 49.5553 208.608C48.3141 208.355 47.3695 208.296 46.8872 208.23C46.3718 205.6 44.2196 195.287 42.875 190.568C43.6876 190.9 44.7115 191.247 45.7763 191.604M57.9646 239.665C57.6147 239.155 56.8253 237.952 56.4678 237.22C56.1657 236.6 55.7091 234.813 55.336 233.353C55.157 232.652 54.9972 232.027 54.8828 231.641C54.5301 230.452 54.8175 229.178 55.4674 228.18C56.0013 227.361 55.3557 226.771 54.7122 226.183C54.5724 226.056 54.4328 225.928 54.3053 225.798C53.8535 225.338 53.537 225.039 53.2206 224.74C50.6639 225.015 46.242 227.749 45.7735 228.362C48.2962 230.78 54.765 240.107 56.7873 241.238C56.8175 241.248 57.0388 241.279 57.0679 241.288C57.2985 241.367 57.5292 241.447 57.7004 241.607M57.9646 239.665C57.9314 240.379 57.8483 241.039 57.7004 241.607M29.3531 221.603L29.3503 221.601M29.3531 221.603C29.3522 221.603 29.3512 221.602 29.3503 221.601M29.3531 221.603L29.3551 221.605M29.3531 221.603C29.3537 221.604 29.3544 221.604 29.3551 221.605M45.9898 191.675C45.9185 191.651 45.8472 191.627 45.7763 191.604M45.9898 191.675L45.7763 191.604M29.3503 221.601C29.1582 221.437 28.9971 221.299 28.8737 221.193C31.0277 221.322 36.6414 223.407 38.7892 224.663C41.4741 226.234 43.3121 227.642 44.9194 228.97C45.5038 229.453 52.0297 235.68 55.4534 240.731C54.9035 240.503 54.064 240.147 53.6099 239.748C51.6192 237.997 47.7128 236.047 45.103 235.356C42.4931 234.666 38.8175 230.859 36.7423 228.469C35.1177 226.598 31.9358 223.819 30.0658 222.213C29.8 221.985 29.5605 221.781 29.3559 221.606L29.3551 221.605M32.9258 216.577C33.3116 217.523 35.2283 220.842 35.7404 220.773C36.1454 220.719 36.2373 212.804 36.7415 207.61C38.3407 204.717 41.5787 206.786 42.2706 207.025C42.8541 207.226 45.5109 208.517 46.7454 209.259C48.4907 214.436 51.4649 222.998 52.1358 223.681C50.4055 224.731 46.588 227.042 45.1608 227.892C40.4346 225.097 30.2735 219.288 27.4384 218.42C27.3748 218.219 27.3179 218.04 27.2647 217.895C23.2283 206.858 19.8767 197.878 18.0758 193.095C18.2461 192.087 20.8855 192.684 22.4315 192.314C23.5581 195.596 29.6908 209.665 32.9258 216.577ZM41.8967 190.114C42.0523 190.805 43.7063 194.61 44.3645 197.553C44.8761 199.841 45.8385 204.9 46.364 208.123C44.5083 207.899 39.9065 204.145 39.0668 203.211C38.3951 202.463 36.9056 199.72 36.2449 198.442C34.4887 192.987 28.9582 178.951 28.4105 176.914C27.7689 174.154 28.3111 172.661 29.3618 168.768C30.9364 173.823 40.1479 187.929 41.8967 190.114Z" stroke="black" shape-rendering="crispEdges"/>
</g>
<g filter="url(#filter4_i_1_5)">
<path d="M11.4539 173.921C14.8009 172.626 26.5477 149.965 30.6547 134.43C34.1615 135.671 42.0222 135.647 42.8179 137.957C43.8125 140.846 49.2987 151.241 50.7992 152.618C52.2997 153.994 55.9605 159.798 59.1251 163.736C61.6569 166.887 67.6287 171.255 70.2981 173.045C74.5275 174.917 83.1524 179.002 83.8171 180.365C84.648 182.068 88.2843 196.318 88.7681 202.407C89.2519 208.496 92.4043 216.657 93.5676 219.042C94.4981 220.949 97.2559 234.531 98.5185 241.084C95.9509 242.618 91.1132 246.805 92.3038 251.285L92.3379 251.413C93.8753 257.195 99.34 277.747 89.3882 276.743C81.3667 275.934 49.4608 248.994 34.5106 235.625C25.4304 215.597 8.10688 175.217 11.4539 173.921Z" fill="url(#paint0_radial_1_5)"/>
</g>
<path d="M42.3455 203.148C41.1276 201.282 38.6375 203.111 38.7527 203.978C38.8678 204.844 48.4175 226.94 49.0355 226.946C49.6535 226.952 49.0897 221.384 48.8534 220.269C48.6171 219.154 43.5634 205.014 42.3455 203.148Z" fill="url(#paint1_linear_1_5)"/>
<path d="M60.5302 252.398L63.6931 257.62L37.4457 236.598L36.4822 233.993L39.3298 233.526L60.5302 252.398Z" fill="url(#paint2_linear_1_5)"/>
<path d="M70.3457 259.91L68.1101 261.001L71.6486 265.733L87.2624 274.414L90.2432 272.96L90.6309 271.233L87.4679 266.01L82.8086 262.133L75.1503 261.564L70.3457 259.91Z" fill="url(#paint3_linear_1_5)"/>
<path d="M76.9528 203.485C75.82 205.575 72.7059 208.017 71.4639 208.623C70.2219 209.229 75.5354 209.404 75.5354 209.404C75.5354 209.404 88.2407 212.124 89.1131 211.391C89.9855 210.658 80.9206 189.556 79.933 189.423C78.9454 189.289 78.0857 201.395 76.9528 203.485Z" fill="url(#paint4_linear_1_5)"/>
<path d="M89.9614 213.13C89.3495 212.506 75.1598 209.895 73.7906 210.871C72.4214 211.846 70.0887 210.217 70.8098 212.325C71.5309 214.433 79.5841 237.874 85.2431 240.649C90.9021 243.423 92.4467 237.134 92.4467 237.134C92.4467 237.134 93.9673 233.317 93.8642 231.215C93.761 229.113 92.6034 221.067 92.1307 218.837C91.658 216.607 90.5734 213.754 89.9614 213.13Z" fill="url(#paint5_linear_1_5)"/>
<path d="M83.2499 242.236C79.7903 242.079 73.8227 245.605 73.3138 247.084C72.8049 248.562 78.5429 255.911 80.2576 257.535C81.9723 259.158 84.5594 260.049 85.541 260.8C86.5225 261.551 90.5278 269.131 91.7577 269.761C92.9876 270.391 93.1751 263.841 92.9448 262.108C92.7145 260.376 91.5026 257.892 91.5026 257.892L89.5027 247.489C89.5027 247.489 86.7094 242.394 83.2499 242.236Z" fill="url(#paint6_linear_1_5)"/>
<path d="M35.7002 225.456L27.1689 213.012L27.6355 215.859L34.5251 231.872L36.7487 232.018L38.1239 230.424L35.7002 225.456Z" fill="url(#paint7_linear_1_5)"/>
<path d="M54.5679 242.698C53.5864 241.947 48.4302 238.312 47.4547 236.943C46.4792 235.574 56.8096 240.99 56.8096 240.99C56.8096 240.99 70.5754 249.035 71.6781 250.034C72.7808 251.034 76.5557 256.881 77.7736 258.747C78.9915 260.613 63.7293 253.912 62.6265 252.913C61.5238 251.913 55.5495 243.449 54.5679 242.698Z" fill="url(#paint8_linear_1_5)"/>
<path d="M68.9739 210.453C68.6103 209.708 60.3703 205.425 59.6311 205.17C58.8919 204.916 58.5163 205.407 58.3891 205.776C58.3263 205.959 57.5752 216.937 57.2568 220.475C56.9385 224.013 55.743 236.282 55.743 236.282C55.743 236.282 55.1009 238.748 56.3308 239.378C57.5608 240.008 67.3944 245.666 69.4967 245.563C71.5991 245.46 77.6879 242.182 78.4392 241.2C79.1904 240.219 79.7113 237.505 79.6022 236.02C79.4931 234.536 69.3375 211.198 68.9739 210.453Z" fill="url(#paint9_linear_1_5)"/>
<path d="M71.6755 199.602C71.4633 196.015 66.1431 183.849 66.8883 183.486C67.6335 183.122 78.3335 188.665 78.6971 189.411C79.0606 190.156 76.8497 201.383 76.4621 203.109C76.0744 204.836 70.9671 208.865 70.3551 208.241C69.7432 207.617 71.8877 203.188 71.6755 199.602Z" fill="url(#paint10_linear_1_5)"/>
<path d="M66.3065 179.772C66.3185 178.536 68.3479 173.24 67.9844 172.495C67.6208 171.75 81.1442 179.298 81.3746 181.031C81.6049 182.764 80.1935 188.065 78.9575 188.053C77.7215 188.041 68.2455 183.746 67.2699 182.377C66.2944 181.008 66.2944 181.008 66.3065 179.772L66.3065 179.772Z" fill="url(#paint11_linear_1_5)"/>
<path d="M23.9089 205.069C23.9089 205.069 13.0081 182.095 16.2132 182.992C19.4183 183.888 20.5391 183.034 20.6543 183.9C20.7694 184.766 29.8313 205.898 29.5859 205.99L30.38 213.29L23.9089 205.069Z" fill="url(#paint12_linear_1_5)"/>
<path d="M25.9296 149.959L35.0964 147.947C35.0964 147.947 28.6476 162.779 27.7602 165.057C26.8727 167.335 20.1876 181.053 20.1876 181.053L15.4921 180.883L14.0258 179.138L25.9296 149.959Z" fill="url(#paint13_linear_1_5)"/>
<path d="M31.9843 188.213C32.8205 191.188 37.5348 202.112 38.0256 202.487C38.5163 202.863 41.376 201.16 42.1151 201.415C42.8543 201.669 46.8642 183.414 46.8642 183.414C46.8642 183.414 39.599 167.892 39.3567 167.395C39.1143 166.898 38.3872 165.408 37.1512 165.396C35.9152 165.384 31.063 181.282 30.8086 182.021C30.5541 182.761 31.148 185.239 31.9843 188.213Z" fill="url(#paint14_linear_1_5)"/>
<path d="M44.3602 148.655C43.7362 149.267 43.3606 149.758 43.9605 151.618C44.5604 153.478 51.7586 163.19 57.1029 172.883C62.4472 182.577 66.2763 182.862 65.9248 180.881C65.5733 178.899 68.2267 172.992 67.0028 171.744C65.7789 170.496 59.055 165.166 56.957 162.499C54.859 159.832 47.7203 149.826 47.1957 149.425C46.2142 148.673 44.9842 148.043 44.3602 148.655Z" fill="url(#paint15_linear_1_5)"/>
<path d="M22.1808 179.465C22.1808 179.465 35.466 148.074 35.7144 147.953C35.9628 147.832 38.8043 147.983 40.5251 148.989C42.2458 149.994 41.3553 152.582 41.3553 152.582L31.7172 177.58L29.6637 185.348L23.2715 181.701L22.1808 179.465Z" fill="url(#paint16_linear_1_5)"/>
<path d="M42.1982 167.547C40.5438 159.743 41.8521 152.339 42.9609 152.721C44.0696 153.102 55.6065 174.229 56.9456 176.343C58.2847 178.457 64.4164 183.462 65.6403 184.71C66.8642 185.958 69.7425 195.009 69.7425 195.009C69.7425 195.009 70.773 203.425 69.5008 207.121C68.2287 210.817 62.097 205.812 57.5709 200.947C53.0448 196.083 43.8527 175.35 42.1982 167.547Z" fill="url(#paint17_linear_1_5)"/>
<path d="M42.7271 202.039C42.8543 201.669 46.6098 184.153 47.7126 185.153C48.8153 186.152 57.2743 206.013 57.2743 206.013C57.2743 206.013 56.1126 236.409 54.2586 236.391C52.4046 236.373 48.8962 228.551 49.6475 227.57C50.3987 226.588 49.7138 220.772 49.4774 219.657C49.2411 218.542 42.5999 202.408 42.7271 202.039Z" fill="url(#paint18_linear_1_5)"/>
<path d="M30.0212 186.711C28.3065 185.087 23.1055 182.724 22.1386 183.791C21.1718 184.858 22.8356 188.371 22.8356 188.371L36.3905 218.046L36.815 225.22L39.1175 229.939L51.4291 235.004C51.4291 235.004 31.7359 188.334 30.0212 186.711Z" fill="url(#paint19_linear_1_5)"/>
<path d="M31.8726 136.296L26.1841 149.22C26.1841 149.22 33.7392 147.686 35.472 147.456C37.2048 147.226 37.7679 140.186 36.6772 137.95C35.5865 135.714 34.7201 135.83 34.7201 135.83L31.8726 136.296Z" fill="url(#paint20_linear_1_5)"/>
<path d="M36.5464 147.137C37.748 146.448 37.4224 137.586 37.6244 138C37.8263 138.414 43.4209 143.578 43.4209 143.578L41.1551 147.759C41.1551 147.759 35.3448 147.826 36.5464 147.137Z" fill="url(#paint21_linear_1_5)"/>
<g filter="url(#filter5_diii_1_5)">
<path d="M83.8258 200.923C83.4445 195.661 80.3595 183.363 79.6438 181.896C79.0712 180.722 71.5473 177.249 67.8569 175.66C65.5319 174.13 60.3331 170.395 58.1381 167.688C56.8794 166.136 55.532 164.245 54.3163 162.538C52.882 160.525 51.6308 158.769 50.9249 158.13C49.6206 156.95 44.8889 147.999 44.038 145.508C43.7858 144.769 42.7625 143.948 41.4186 143.153C41.0877 142.958 40.7375 142.764 40.3745 142.573M83.8258 200.923C82.3853 197.873 79.1726 190.553 77.8459 185.679C76.0908 184.541 72.733 183.419 69.5396 182.352M83.8258 200.923C83.9761 202.998 84.4874 205.348 85.113 207.56M40.3745 142.573C38.233 141.448 35.6489 140.435 34.0009 139.871C29.3336 151.713 19.2642 175.683 16.3244 176.827C13.3846 177.971 28.2731 212.77 36.0848 230.026C49.0829 241.484 76.8336 264.559 83.852 265.204C86.5625 265.452 87.6479 264.719 88.2745 262.319L88.2753 262.317M40.3745 142.573C35.6799 153.581 25.3459 175.775 23.9201 178.207C25.4537 180.468 30.2937 184.118 31.7701 183.095C31.7893 181.342 38.9864 154.66 38.9864 154.66C39.4933 148.971 39.0148 149.084 39.5676 145.766C39.5797 144.53 39.7825 143.952 40.3745 142.573ZM85.113 207.56C86.0744 210.959 87.3058 214.031 87.9128 215.275C88.7144 216.918 91.0348 228.645 92.0948 234.303C89.8358 235.647 85.5707 239.302 86.582 243.167L86.611 243.278C87.3561 246.125 88.9597 253.679 88.6999 259.206M85.113 207.56C83.5754 208.552 79.4488 210.324 75.2429 209.47C73.2539 209.066 71.7401 208.972 70.9671 208.865C70.1429 204.655 66.7004 188.138 64.5486 180.581C65.8506 181.113 67.4913 181.667 69.1975 182.238M88.6999 259.206C88.1394 258.39 86.8752 256.464 86.3026 255.29C85.8189 254.299 85.0883 251.437 84.4912 249.098C84.2048 247.976 83.9491 246.974 83.7661 246.357C83.2016 244.453 83.6631 242.412 84.7052 240.814C85.5613 239.501 84.5271 238.557 83.4962 237.616C83.2723 237.412 83.0485 237.207 82.8443 236.999C82.1206 236.263 81.6136 235.784 81.1066 235.305C77.009 235.748 69.9206 240.129 69.1693 241.11C73.2107 244.981 83.5719 259.916 86.8121 261.727C86.8604 261.742 87.2151 261.792 87.2617 261.806C87.6313 261.933 88.0009 262.06 88.2753 262.317M88.6999 259.206C88.6462 260.35 88.5126 261.406 88.2753 262.317M42.8579 230.297L42.8534 230.293M42.8579 230.297C42.8564 230.295 42.8549 230.294 42.8534 230.293M42.8579 230.297L42.8611 230.299M42.8579 230.297C42.859 230.298 42.86 230.298 42.8611 230.299M69.5396 182.352C69.4254 182.314 69.3112 182.276 69.1975 182.238M69.5396 182.352L69.1975 182.238M42.8534 230.293C42.5457 230.03 42.2875 229.81 42.0899 229.639C45.5419 229.845 54.5371 233.18 57.9786 235.191C62.2804 237.705 65.2251 239.959 67.8001 242.086C68.7365 242.859 79.1911 252.827 84.6746 260.915C83.7935 260.55 82.4483 259.981 81.7209 259.342C78.5317 256.539 72.2723 253.418 68.0902 252.314C63.9081 251.21 58.0199 245.115 54.6956 241.288C52.0933 238.293 46.9955 233.843 43.9998 231.273C43.5738 230.908 43.1902 230.58 42.8625 230.301L42.8611 230.299M48.5869 222.244C49.2045 223.759 52.2741 229.073 53.0949 228.963C53.744 228.876 53.8965 216.199 54.7078 207.88C57.2726 203.246 62.4606 206.558 63.5693 206.939C64.5043 207.261 68.7613 209.327 70.7393 210.514C73.5329 218.804 78.294 232.516 79.3688 233.61C76.595 235.292 70.4755 238.997 68.1878 240.359C60.6153 235.884 44.3345 226.588 39.7915 225.199C39.6896 224.878 39.5985 224.591 39.5134 224.358C33.0516 206.684 27.6861 192.303 24.803 184.644C25.0766 183.03 29.3061 183.984 31.7841 183.391C33.5875 188.646 43.4069 211.176 48.5869 222.244ZM62.9808 179.855C63.2299 180.961 65.8781 187.054 66.9312 191.768C67.7496 195.432 69.2886 203.534 70.1287 208.695C67.1549 208.337 59.7824 202.329 58.4373 200.832C57.3612 199.635 54.9759 195.243 53.9178 193.196C51.1069 184.461 42.2525 161.985 41.3761 158.722C40.3496 154.302 41.2195 151.91 42.906 145.675C45.4261 153.769 60.1797 176.356 62.9808 179.855Z" stroke="black" shape-rendering="crispEdges"/>
</g>
<path d="M15.1906 155.991L16.1099 153.385M16.9535 155.148L14.347 154.229" stroke="white"/>
<path d="M104.09 267.613L105.009 265.006M105.853 266.769L103.246 265.85" stroke="white"/>
<path d="M83.8243 165.561L84.7435 162.954M85.5872 164.717L82.9807 163.798" stroke="white"/>
<path d="M61.1065 213.547L62.0257 210.94M62.8694 212.703L60.2628 211.784" stroke="white"/>
<defs>
<filter id="filter0_f_1_5" x="-142.233" y="0.728043" width="408.037" height="409.309" filterUnits="userSpaceOnUse" color-interpolation-filters="sRGB">
<feFlood flood-opacity="0" result="BackgroundImageFix"/>
<feBlend mode="normal" in="SourceGraphic" in2="BackgroundImageFix" result="shape"/>
<feGaussianBlur stdDeviation="75" result="effect1_foregroundBlur_1_5"/>
</filter>
<filter id="filter1_f_1_5" x="-115.266" y="8.82335" width="354.977" height="392.221" filterUnits="userSpaceOnUse" color-interpolation-filters="sRGB">
<feFlood flood-opacity="0" result="BackgroundImageFix"/>
<feBlend mode="normal" in="SourceGraphic" in2="BackgroundImageFix" result="shape"/>
<feGaussianBlur stdDeviation="75" result="effect1_foregroundBlur_1_5"/>
</filter>
<filter id="filter2_diii_1_5" x="26.1023" y="135.401" width="79.205" height="128.507" filterUnits="userSpaceOnUse" color-interpolation-filters="sRGB">
<feFlood flood-opacity="0" result="BackgroundImageFix"/>
<feColorMatrix in="SourceAlpha" type="matrix" values="0 0 0 0 0 0 0 0 0 0 0 0 0 0 0 0 0 0 127 0" result="hardAlpha"/>
<feOffset dy="1"/>
<feGaussianBlur stdDeviation="0.5"/>
<feComposite in2="hardAlpha" operator="out"/>
<feColorMatrix type="matrix" values="0 0 0 0 1 0 0 0 0 1 0 0 0 0 1 0 0 0 0.25 0"/>
<feBlend mode="normal" in2="BackgroundImageFix" result="effect1_dropShadow_1_5"/>
<feBlend mode="normal" in="SourceGraphic" in2="effect1_dropShadow_1_5" result="shape"/>
<feColorMatrix in="SourceAlpha" type="matrix" values="0 0 0 0 0 0 0 0 0 0 0 0 0 0 0 0 0 0 127 0" result="hardAlpha"/>
<feOffset dx="2" dy="1"/>
<feComposite in2="hardAlpha" operator="arithmetic" k2="-1" k3="1"/>
<feColorMatrix type="matrix" values="0 0 0 0 1 0 0 0 0 1 0 0 0 0 1 0 0 0 0.36 0"/>
<feBlend mode="normal" in2="shape" result="effect2_innerShadow_1_5"/>
<feColorMatrix in="SourceAlpha" type="matrix" values="0 0 0 0 0 0 0 0 0 0 0 0 0 0 0 0 0 0 127 0" result="hardAlpha"/>
<feOffset dy="3"/>
<feComposite in2="hardAlpha" operator="arithmetic" k2="-1" k3="1"/>
<feColorMatrix type="matrix" values="0 0 0 0 1 0 0 0 0 1 0 0 0 0 1 0 0 0 0.25 0"/>
<feBlend mode="normal" in2="effect2_innerShadow_1_5" result="effect3_innerShadow_1_5"/>
<feColorMatrix in="SourceAlpha" type="matrix" values="0 0 0 0 0 0 0 0 0 0 0 0 0 0 0 0 0 0 127 0" result="hardAlpha"/>
<feOffset dx="1" dy="1"/>
<feGaussianBlur stdDeviation="0.5"/>
<feComposite in2="hardAlpha" operator="arithmetic" k2="-1" k3="1"/>
<feColorMatrix type="matrix" values="0 0 0 0 1 0 0 0 0 1 0 0 0 0 1 0 0 0 1 0"/>
<feBlend mode="normal" in2="effect3_innerShadow_1_5" result="effect4_innerShadow_1_5"/>
</filter>
<filter id="filter3_diii_1_5" x="11.0473" y="164.514" width="50.5852" height="81.4234" filterUnits="userSpaceOnUse" color-interpolation-filters="sRGB">
<feFlood flood-opacity="0" result="BackgroundImageFix"/>
<feColorMatrix in="SourceAlpha" type="matrix" values="0 0 0 0 0 0 0 0 0 0 0 0 0 0 0 0 0 0 127 0" result="hardAlpha"/>
<feOffset dy="1"/>
<feGaussianBlur stdDeviation="0.5"/>
<feComposite in2="hardAlpha" operator="out"/>
<feColorMatrix type="matrix" values="0 0 0 0 1 0 0 0 0 1 0 0 0 0 1 0 0 0 0.25 0"/>
<feBlend mode="normal" in2="BackgroundImageFix" result="effect1_dropShadow_1_5"/>
<feBlend mode="normal" in="SourceGraphic" in2="effect1_dropShadow_1_5" result="shape"/>
<feColorMatrix in="SourceAlpha" type="matrix" values="0 0 0 0 0 0 0 0 0 0 0 0 0 0 0 0 0 0 127 0" result="hardAlpha"/>
<feOffset dx="2" dy="1"/>
<feComposite in2="hardAlpha" operator="arithmetic" k2="-1" k3="1"/>
<feColorMatrix type="matrix" values="0 0 0 0 1 0 0 0 0 1 0 0 0 0 1 0 0 0 0.36 0"/>
<feBlend mode="normal" in2="shape" result="effect2_innerShadow_1_5"/>
<feColorMatrix in="SourceAlpha" type="matrix" values="0 0 0 0 0 0 0 0 0 0 0 0 0 0 0 0 0 0 127 0" result="hardAlpha"/>
<feOffset dy="3"/>
<feComposite in2="hardAlpha" operator="arithmetic" k2="-1" k3="1"/>
<feColorMatrix type="matrix" values="0 0 0 0 1 0 0 0 0 1 0 0 0 0 1 0 0 0 0.25 0"/>
<feBlend mode="normal" in2="effect2_innerShadow_1_5" result="effect3_innerShadow_1_5"/>
<feColorMatrix in="SourceAlpha" type="matrix" values="0 0 0 0 0 0 0 0 0 0 0 0 0 0 0 0 0 0 127 0" result="hardAlpha"/>
<feOffset dx="1" dy="1"/>
<feGaussianBlur stdDeviation="0.5"/>
<feComposite in2="hardAlpha" operator="arithmetic" k2="-1" k3="1"/>
<feColorMatrix type="matrix" values="0 0 0 0 1 0 0 0 0 1 0 0 0 0 1 0 0 0 1 0"/>
<feBlend mode="normal" in2="effect3_innerShadow_1_5" result="effect4_innerShadow_1_5"/>
</filter>
<filter id="filter4_i_1_5" x="11.0306" y="134.43" width="88.4879" height="143.349" filterUnits="userSpaceOnUse" color-interpolation-filters="sRGB">
<feFlood flood-opacity="0" result="BackgroundImageFix"/>
<feBlend mode="normal" in="SourceGraphic" in2="BackgroundImageFix" result="shape"/>
<feColorMatrix in="SourceAlpha" type="matrix" values="0 0 0 0 0 0 0 0 0 0 0 0 0 0 0 0 0 0 127 0" result="hardAlpha"/>
<feOffset dx="1" dy="1"/>
<feGaussianBlur stdDeviation="2"/>
<feComposite in2="hardAlpha" operator="arithmetic" k2="-1" k3="1"/>
<feColorMatrix type="matrix" values="0 0 0 0 0.100781 0 0 0 0 0.0276215 0 0 0 0 0.179167 0 0 0 0.41 0"/>
<feBlend mode="normal" in2="shape" result="effect1_innerShadow_1_5"/>
</filter>
<filter id="filter5_diii_1_5" x="14.4455" y="139.243" width="79.205" height="128.507" filterUnits="userSpaceOnUse" color-interpolation-filters="sRGB">
<feFlood flood-opacity="0" result="BackgroundImageFix"/>
<feColorMatrix in="SourceAlpha" type="matrix" values="0 0 0 0 0 0 0 0 0 0 0 0 0 0 0 0 0 0 127 0" result="hardAlpha"/>
<feOffset dy="1"/>
<feGaussianBlur stdDeviation="0.5"/>
<feComposite in2="hardAlpha" operator="out"/>
<feColorMatrix type="matrix" values="0 0 0 0 1 0 0 0 0 1 0 0 0 0 1 0 0 0 0.25 0"/>
<feBlend mode="normal" in2="BackgroundImageFix" result="effect1_dropShadow_1_5"/>
<feBlend mode="normal" in="SourceGraphic" in2="effect1_dropShadow_1_5" result="shape"/>
<feColorMatrix in="SourceAlpha" type="matrix" values="0 0 0 0 0 0 0 0 0 0 0 0 0 0 0 0 0 0 127 0" result="hardAlpha"/>
<feOffset dx="2" dy="1"/>
<feComposite in2="hardAlpha" operator="arithmetic" k2="-1" k3="1"/>
<feColorMatrix type="matrix" values="0 0 0 0 1 0 0 0 0 1 0 0 0 0 1 0 0 0 0.36 0"/>
<feBlend mode="normal" in2="shape" result="effect2_innerShadow_1_5"/>
<feColorMatrix in="SourceAlpha" type="matrix" values="0 0 0 0 0 0 0 0 0 0 0 0 0 0 0 0 0 0 127 0" result="hardAlpha"/>
<feOffset dy="3"/>
<feComposite in2="hardAlpha" operator="arithmetic" k2="-1" k3="1"/>
<feColorMatrix type="matrix" values="0 0 0 0 1 0 0 0 0 1 0 0 0 0 1 0 0 0 0.25 0"/>
<feBlend mode="normal" in2="effect2_innerShadow_1_5" result="effect3_innerShadow_1_5"/>
<feColorMatrix in="SourceAlpha" type="matrix" values="0 0 0 0 0 0 0 0 0 0 0 0 0 0 0 0 0 0 127 0" result="hardAlpha"/>
<feOffset dx="1" dy="1"/>
<feGaussianBlur stdDeviation="0.5"/>
<feComposite in2="hardAlpha" operator="arithmetic" k2="-1" k3="1"/>
<feColorMatrix type="matrix" values="0 0 0 0 1 0 0 0 0 1 0 0 0 0 1 0 0 0 1 0"/>
<feBlend mode="normal" in2="effect3_innerShadow_1_5" result="effect4_innerShadow_1_5"/>
</filter>
<radialGradient id="paint0_radial_1_5" cx="0" cy="0" r="1" gradientUnits="userSpaceOnUse" gradientTransform="translate(72.3196 234.96) rotate(58.367) scale(56.3781 69.7979)">
<stop stop-color="#E6A6F5"/>
<stop offset="1" stop-color="white"/>
</radialGradient>
<linearGradient id="paint1_linear_1_5" x1="48.43" y1="224.541" x2="53.537" y2="221.36" gradientUnits="userSpaceOnUse">
<stop stop-color="#B38EC4"/>
<stop offset="1" stop-color="#C2B7CE"/>
</linearGradient>
<linearGradient id="paint2_linear_1_5" x1="62.1177" y1="254.391" x2="58.3942" y2="231.851" gradientUnits="userSpaceOnUse">
<stop stop-color="#8141AF"/>
<stop offset="1" stop-color="#8B61A3"/>
</linearGradient>
<linearGradient id="paint3_linear_1_5" x1="90.1461" y1="270.239" x2="82.9181" y2="255.777" gradientUnits="userSpaceOnUse">
<stop stop-color="#A05BC8"/>
<stop offset="1" stop-color="#64318E"/>
</linearGradient>
<linearGradient id="paint4_linear_1_5" x1="76.7834" y1="208.181" x2="86.2383" y2="204.197" gradientUnits="userSpaceOnUse">
<stop stop-color="#CB8BE2"/>
<stop offset="0.458333" stop-color="#B856E1"/>
<stop offset="1" stop-color="#A272B0"/>
</linearGradient>
<linearGradient id="paint5_linear_1_5" x1="87.006" y1="237.329" x2="98.3113" y2="223.509" gradientUnits="userSpaceOnUse">
<stop stop-color="#DE9BFA"/>
<stop offset="1" stop-color="#BB8DD8"/>
</linearGradient>
<linearGradient id="paint6_linear_1_5" x1="86.0687" y1="269.446" x2="99.9958" y2="256.728" gradientUnits="userSpaceOnUse">
<stop stop-color="#D288E1"/>
<stop offset="1" stop-color="#D98DEF"/>
</linearGradient>
<linearGradient id="paint7_linear_1_5" x1="34.5008" y1="230.804" x2="38.9618" y2="228.011" gradientUnits="userSpaceOnUse">
<stop stop-color="#B085D5"/>
<stop offset="1" stop-color="#BCA1CC"/>
</linearGradient>
<linearGradient id="paint8_linear_1_5" x1="76.3194" y1="255.766" x2="71.7112" y2="234.457" gradientUnits="userSpaceOnUse">
<stop stop-color="#D78AEE"/>
<stop offset="1" stop-color="#61248D"/>
</linearGradient>
<linearGradient id="paint9_linear_1_5" x1="62.0551" y1="244.783" x2="84.0282" y2="222.783" gradientUnits="userSpaceOnUse">
<stop stop-color="#B15ADF"/>
<stop offset="1" stop-color="#8732B4"/>
</linearGradient>
<linearGradient id="paint10_linear_1_5" x1="73.348" y1="205.551" x2="83.7713" y2="196.071" gradientUnits="userSpaceOnUse">
<stop stop-color="#B55ED3"/>
<stop offset="1" stop-color="#9532B1"/>
</linearGradient>
<linearGradient id="paint11_linear_1_5" x1="78.8604" y1="185.333" x2="72.7501" y2="173.903" gradientUnits="userSpaceOnUse">
<stop stop-color="#9F69BC"/>
<stop offset="0.671814" stop-color="#9A7BB4"/>
<stop offset="0.973958" stop-color="#BDADDE"/>
</linearGradient>
<linearGradient id="paint12_linear_1_5" x1="27.5927" y1="211.02" x2="34.6029" y2="206.63" gradientUnits="userSpaceOnUse">
<stop stop-color="#C0A7CF"/>
<stop offset="1" stop-color="#A693B6"/>
</linearGradient>
<linearGradient id="paint13_linear_1_5" x1="18.2591" y1="179.233" x2="34.6017" y2="147.457" gradientUnits="userSpaceOnUse">
<stop stop-color="#87519F"/>
<stop offset="0.557868" stop-color="#9053B2"/>
<stop offset="1" stop-color="#8652A0"/>
</linearGradient>
<linearGradient id="paint14_linear_1_5" x1="39.0131" y1="202.621" x2="64.1745" y2="160.932" gradientUnits="userSpaceOnUse">
<stop stop-color="#8735A4"/>
<stop offset="0.462159" stop-color="#A46AB9"/>
</linearGradient>
<linearGradient id="paint15_linear_1_5" x1="65.6035" y1="175.809" x2="56.9575" y2="144.947" gradientUnits="userSpaceOnUse">
<stop stop-color="#9F6AB0"/>
<stop offset="0.987" stop-color="#743F9B"/>
</linearGradient>
<linearGradient id="paint16_linear_1_5" x1="30.1966" y1="181.397" x2="48.8755" y2="157.835" gradientUnits="userSpaceOnUse">
<stop stop-color="#6A2286"/>
<stop offset="1" stop-color="#350956"/>
</linearGradient>
<linearGradient id="paint17_linear_1_5" x1="67.6649" y1="205.249" x2="79.7658" y2="191.568" gradientUnits="userSpaceOnUse">
<stop stop-color="#AF43D7"/>
<stop offset="1" stop-color="#550387"/>
</linearGradient>
<linearGradient id="paint18_linear_1_5" x1="53.8856" y1="231.263" x2="71.6159" y2="217.814" gradientUnits="userSpaceOnUse">
<stop stop-color="#CCACD5"/>
<stop offset="1" stop-color="#B985CA"/>
</linearGradient>
<linearGradient id="paint19_linear_1_5" x1="44.4371" y1="229.497" x2="54.565" y2="221.333" gradientUnits="userSpaceOnUse">
<stop stop-color="#B162D7"/>
<stop offset="1" stop-color="#7316A3"/>
</linearGradient>
<linearGradient id="paint20_linear_1_5" x1="28.1593" y1="149.486" x2="35.4653" y2="135.466" gradientUnits="userSpaceOnUse">
<stop stop-color="#8964A9"/>
<stop offset="1" stop-color="#755A8D"/>
</linearGradient>
<linearGradient id="paint21_linear_1_5" x1="37.811" y1="148.25" x2="44.2526" y2="140.578" gradientUnits="userSpaceOnUse">
<stop stop-color="#8964A9"/>
<stop offset="1" stop-color="#755A8D"/>
</linearGradient>
</defs>
</svg>
