<svg width="389" height="319" viewBox="0 0 389 319" fill="none" xmlns="http://www.w3.org/2000/svg">
<g filter="url(#filter0_i_11_16)">
<path d="M105.166 114.372C116.54 124.619 132.592 123.582 147.198 107.368C157.445 95.994 154.596 82.7253 143.222 72.4786C131.847 62.2318 111.42 63.2445 101.173 74.6189C90.9267 85.9933 93.7915 104.125 105.166 114.372Z" fill="url(#paint0_radial_11_16)"/>
</g>
<g filter="url(#filter1_di_11_16)">
<path d="M122.19 92.4016C85.601 101.676 64.8715 147.114 76.4766 192.897C80.951 210.548 91.1922 236.549 127.21 227.419C144.066 223.146 169.982 249.81 194.379 252.375C206.256 253.623 233.995 250.243 255.125 237.586C278.367 223.663 290.89 206.616 293.172 193.26C304.738 125.591 241.902 149.063 230.955 151.838C206.944 157.924 182.539 131.255 175.212 121.552C167.523 111.37 149.66 85.4384 122.19 92.4016Z" fill="url(#paint1_linear_11_16)"/>
</g>
<g filter="url(#filter2_di_11_16)">
<path d="M253.458 202.207C235.888 209.703 226.64 218.824 221.22 223.846C209.684 234.534 201.345 253.186 195.578 261.903C179.875 285.636 168.195 289.531 151.338 293.804C134.869 297.979 112.391 291.686 93.375 278.764C71.5586 263.94 52.441 237.293 46.2405 212.832C34.6354 167.049 49.0909 136.845 83.4098 131.437C113.248 126.735 134.835 134.318 166.667 126.249C182.675 122.191 197.105 116.708 222.47 87.158C241.259 65.2689 283.317 68.5393 296.533 76.9024C309.577 85.1562 319.207 99.143 324.408 114.861C328.517 127.279 331.517 145.306 330.985 157.61C330.453 169.913 321.362 189.254 300.209 194.616C284.154 198.685 260.134 199.359 253.458 202.207Z" fill="url(#paint2_radial_11_16)"/>
<path d="M46.7252 212.709C40.9385 189.88 41.6699 171.012 48.0574 157.204C54.4329 143.421 66.4745 134.611 83.4876 131.931C96.5638 129.87 108.045 130.177 119.553 130.485C121.126 130.527 122.701 130.569 124.279 130.605C137.398 130.905 150.807 130.785 166.79 126.734C174.818 124.699 182.485 122.298 191.328 116.685C200.163 111.078 210.148 102.281 222.849 87.4837C232.118 76.686 247.169 72.0541 261.621 71.1847C268.838 70.7506 275.88 71.2568 281.935 72.3899C287.999 73.5247 293.037 75.2815 296.266 77.3249C309.191 85.5034 318.76 99.3832 323.934 115.018C328.028 127.391 331.014 145.357 330.486 157.588C329.961 169.729 320.973 188.837 300.086 194.131C292.097 196.156 282.113 197.339 273.259 198.373L272.861 198.419C268.591 198.918 264.595 199.385 261.246 199.898C257.808 200.424 254.996 201.007 253.262 201.747C236.553 208.876 227.326 217.474 221.786 222.636C221.472 222.928 221.171 223.21 220.88 223.479C215.058 228.873 210.06 236.259 205.807 243.357C203.956 246.445 202.242 249.487 200.662 252.291C200.425 252.712 200.191 253.127 199.96 253.537C198.185 256.681 196.591 259.465 195.161 261.627C187.333 273.457 180.534 280.305 173.621 284.73C166.705 289.157 159.641 291.184 151.215 293.319C134.939 297.445 112.61 291.23 93.656 278.351C71.9347 263.591 52.8939 237.045 46.7252 212.709Z" stroke="white" stroke-opacity="0.05"/>
</g>
<path d="M91.5159 117.81L91.5266 117.807L91.5371 117.804C110.664 112.049 123.53 113.106 135.613 114.603C136.539 114.717 137.461 114.835 138.381 114.952C149.487 116.366 160.326 117.746 175.122 113.996C179.172 112.969 184.938 110.631 191.57 107.582C198.211 104.529 205.751 100.749 213.358 96.8223C219.269 93.7712 225.218 90.6336 230.822 87.6784C239.653 83.0204 247.626 78.8156 253.238 76.1167C280.224 63.138 304.141 64.4232 323.362 71.0444C332.563 74.2139 344.331 82.555 352.655 101.084C357.959 112.889 359.405 129.688 353.08 148.062C348.452 161.504 340.542 175.063 331.245 184.739C321.931 194.434 311.336 200.123 301.318 198.115C286.541 195.152 276.217 194.723 268.734 195.401C261.242 196.08 256.617 197.867 253.251 199.303C235.611 206.829 225.578 215.483 220.132 220.529C214.322 225.913 209.08 232.913 204.579 239.639C202.327 243.004 200.256 246.306 198.39 249.308C198.11 249.758 197.835 250.201 197.565 250.637C196.03 253.11 194.647 255.337 193.426 257.183C185.591 269.025 179.252 275.907 172.801 280.364C166.354 284.819 159.759 286.879 151.34 289.012C135.043 293.144 111.837 288.263 92.9083 275.401C71.187 260.641 52.1462 234.095 45.9774 209.759C34.4268 164.192 56.4702 126.693 91.5159 117.81Z" stroke="white"/>
<g filter="url(#filter3_i_11_16)">
<path d="M280.432 234.213C284.194 249.053 272.951 264.706 251.798 270.068C236.958 273.829 229.021 261.821 225.259 246.981C221.497 232.141 232.048 216.055 246.888 212.294C261.728 208.532 276.671 219.373 280.432 234.213Z" fill="url(#paint3_radial_11_16)"/>
</g>
<path d="M101.954 89.013C102.846 92.5342 100.715 96.1123 97.1941 97.0049C93.5623 97.9255 89.643 96.3846 88.7754 92.9619C88.334 91.2207 88.7335 89.2673 89.7134 87.6219C90.6933 85.9765 92.2206 84.6947 93.9618 84.2534C97.483 83.3608 101.061 85.4917 101.954 89.013Z" stroke="white"/>
<path d="M320.937 153.975C321.898 157.764 325.748 160.057 329.537 159.097C333.326 158.136 336.335 154.713 335.375 150.924C334.414 147.135 329.848 144.415 326.059 145.376C322.27 146.336 319.977 150.186 320.937 153.975Z" stroke="white"/>
<path d="M218.337 72.0333L221.393 66.989M222.387 71.0391L217.343 67.9832" stroke="white"/>
<path d="M28.1749 185.947L31.2309 180.903M32.2251 184.953L27.1807 181.897" stroke="white"/>
<path d="M308.262 100.348L311.318 95.3034M312.312 99.3536L307.268 96.2976" stroke="white"/>
<path d="M113.427 272.639L116.483 267.595M117.477 271.645L112.433 268.589" stroke="white"/>
<defs>
<filter id="filter0_i_11_16" x="94.8601" y="65.3977" width="58.6575" height="59.6259" filterUnits="userSpaceOnUse" color-interpolation-filters="sRGB">
<feFlood flood-opacity="0" result="BackgroundImageFix"/>
<feBlend mode="normal" in="SourceGraphic" in2="BackgroundImageFix" result="shape"/>
<feColorMatrix in="SourceAlpha" type="matrix" values="0 0 0 0 0 0 0 0 0 0 0 0 0 0 0 0 0 0 127 0" result="hardAlpha"/>
<feOffset dy="4"/>
<feGaussianBlur stdDeviation="4"/>
<feComposite in2="hardAlpha" operator="arithmetic" k2="-1" k3="1"/>
<feColorMatrix type="matrix" values="0 0 0 0 1 0 0 0 0 0.781609 0 0 0 0 0 0 0 0 1 0"/>
<feBlend mode="hard-light" in2="shape" result="effect1_innerShadow_11_16"/>
</filter>
<filter id="filter1_di_11_16" x="63.2503" y="77.2303" width="241.336" height="181.387" filterUnits="userSpaceOnUse" color-interpolation-filters="sRGB">
<feFlood flood-opacity="0" result="BackgroundImageFix"/>
<feColorMatrix in="SourceAlpha" type="matrix" values="0 0 0 0 0 0 0 0 0 0 0 0 0 0 0 0 0 0 127 0" result="hardAlpha"/>
<feOffset dy="-4"/>
<feGaussianBlur stdDeviation="5"/>
<feComposite in2="hardAlpha" operator="out"/>
<feColorMatrix type="matrix" values="0 0 0 0 0 0 0 0 0 0 0 0 0 0 0 0 0 0 0.15 0"/>
<feBlend mode="normal" in2="BackgroundImageFix" result="effect1_dropShadow_11_16"/>
<feBlend mode="normal" in="SourceGraphic" in2="effect1_dropShadow_11_16" result="shape"/>
<feColorMatrix in="SourceAlpha" type="matrix" values="0 0 0 0 0 0 0 0 0 0 0 0 0 0 0 0 0 0 127 0" result="hardAlpha"/>
<feOffset dy="3"/>
<feGaussianBlur stdDeviation="2"/>
<feComposite in2="hardAlpha" operator="arithmetic" k2="-1" k3="1"/>
<feColorMatrix type="matrix" values="0 0 0 0 1 0 0 0 0 1 0 0 0 0 1 0 0 0 0.17 0"/>
<feBlend mode="normal" in2="shape" result="effect2_innerShadow_11_16"/>
</filter>
<filter id="filter2_di_11_16" x="33.2933" y="66.5303" width="302.753" height="238.555" filterUnits="userSpaceOnUse" color-interpolation-filters="sRGB">
<feFlood flood-opacity="0" result="BackgroundImageFix"/>
<feColorMatrix in="SourceAlpha" type="matrix" values="0 0 0 0 0 0 0 0 0 0 0 0 0 0 0 0 0 0 127 0" result="hardAlpha"/>
<feOffset dx="-2" dy="3"/>
<feGaussianBlur stdDeviation="3.5"/>
<feComposite in2="hardAlpha" operator="out"/>
<feColorMatrix type="matrix" values="0 0 0 0 0 0 0 0 0 0 0 0 0 0 0 0 0 0 0.2 0"/>
<feBlend mode="normal" in2="BackgroundImageFix" result="effect1_dropShadow_11_16"/>
<feBlend mode="normal" in="SourceGraphic" in2="effect1_dropShadow_11_16" result="shape"/>
<feColorMatrix in="SourceAlpha" type="matrix" values="0 0 0 0 0 0 0 0 0 0 0 0 0 0 0 0 0 0 127 0" result="hardAlpha"/>
<feOffset dx="-2" dy="-1"/>
<feGaussianBlur stdDeviation="7"/>
<feComposite in2="hardAlpha" operator="arithmetic" k2="-1" k3="1"/>
<feColorMatrix type="matrix" values="0 0 0 0 0.774075 0 0 0 0 0.0261285 0 0 0 0 0.895833 0 0 0 1 0"/>
<feBlend mode="normal" in2="shape" result="effect2_innerShadow_11_16"/>
</filter>
<filter id="filter3_i_11_16" x="220.493" y="207.542" width="60.657" height="63.2218" filterUnits="userSpaceOnUse" color-interpolation-filters="sRGB">
<feFlood flood-opacity="0" result="BackgroundImageFix"/>
<feBlend mode="normal" in="SourceGraphic" in2="BackgroundImageFix" result="shape"/>
<feColorMatrix in="SourceAlpha" type="matrix" values="0 0 0 0 0 0 0 0 0 0 0 0 0 0 0 0 0 0 127 0" result="hardAlpha"/>
<feOffset dx="-4" dy="-4"/>
<feGaussianBlur stdDeviation="3"/>
<feComposite in2="hardAlpha" operator="arithmetic" k2="-1" k3="1"/>
<feColorMatrix type="matrix" values="0 0 0 0 1 0 0 0 0 0.782353 0 0 0 0 0 0 0 0 1 0"/>
<feBlend mode="hard-light" in2="shape" result="effect1_innerShadow_11_16"/>
</filter>
<radialGradient id="paint0_radial_11_16" cx="0" cy="0" r="1" gradientUnits="userSpaceOnUse" gradientTransform="translate(96.4634 98.9228) rotate(7.82206) scale(76.9934 109.499)">
<stop stop-color="#D034C2"/>
<stop offset="1" stop-color="#6AC9FF"/>
</radialGradient>
<linearGradient id="paint1_linear_11_16" x1="93.5077" y1="113.666" x2="283.211" y2="209.171" gradientUnits="userSpaceOnUse">
<stop stop-color="#EF613A"/>
<stop offset="0.438668" stop-color="#DD5732"/>
<stop offset="1" stop-color="#E94B4F"/>
</linearGradient>
<radialGradient id="paint2_radial_11_16" cx="0" cy="0" r="1" gradientUnits="userSpaceOnUse" gradientTransform="translate(317.477 101.918) rotate(150.387) scale(282.613 193.353)">
<stop offset="0.0510431" stop-color="#69CBF0"/>
<stop offset="0.695859" stop-color="#EB15C2"/>
<stop offset="1" stop-color="#FFD64B"/>
</radialGradient>
<radialGradient id="paint3_radial_11_16" cx="0" cy="0" r="1" gradientUnits="userSpaceOnUse" gradientTransform="translate(261.727 244.43) rotate(-157.84) scale(41.7582 66.4789)">
<stop stop-color="#F026E0"/>
<stop offset="1" stop-color="#4A88FF"/>
</radialGradient>
</defs>
</svg>
