<svg width="409" height="411" viewBox="0 0 409 411" fill="none" xmlns="http://www.w3.org/2000/svg">
<g filter="url(#filter0_f_11_41)">
<ellipse cx="204.786" cy="205.382" rx="37.3122" ry="67.1619" transform="rotate(-44.3662 204.786 205.382)" fill="#4A27EF" fill-opacity="0.69"/>
</g>
<g filter="url(#filter1_f_11_41)">
<ellipse cx="205.222" cy="204.934" rx="26.0665" ry="46.9197" transform="rotate(12.8915 205.222 204.934)" fill="#4A27EF" fill-opacity="0.69"/>
</g>
<g filter="url(#filter2_diii_11_41)">
<path d="M238.482 197.082C238.101 191.819 235.016 179.521 234.3 178.054C233.728 176.88 226.204 173.408 222.514 171.818C220.189 170.288 214.99 166.553 212.795 163.846C211.536 162.294 210.189 160.403 208.973 158.696C207.539 156.683 206.288 154.927 205.582 154.289C204.277 153.109 199.546 144.157 198.695 141.666C198.442 140.927 197.419 140.106 196.075 139.312C195.744 139.116 195.394 138.922 195.031 138.731M238.482 197.082C237.042 194.031 233.829 186.711 232.503 181.837C230.748 180.699 227.39 179.577 224.196 178.51M238.482 197.082C238.633 199.156 239.144 201.506 239.77 203.718M195.031 138.731C192.89 137.606 190.306 136.593 188.658 136.029C183.99 147.871 173.921 171.842 170.981 172.985C168.041 174.129 182.93 208.928 190.742 226.185C203.74 237.642 231.49 260.718 238.509 261.362C241.219 261.611 242.305 260.877 242.931 258.478L242.932 258.475M195.031 138.731C190.337 149.739 180.003 171.933 178.577 174.365C180.11 176.627 184.95 180.276 186.427 179.253C186.446 177.5 193.643 150.818 193.643 150.818C194.15 145.129 193.671 145.242 194.224 141.924C194.236 140.688 194.439 140.11 195.031 138.731ZM239.77 203.718C240.731 207.117 241.962 210.189 242.569 211.433C243.371 213.076 245.691 224.803 246.751 230.461C244.492 231.805 240.227 235.46 241.239 239.325L241.268 239.436C242.013 242.283 243.616 249.837 243.357 255.364M239.77 203.718C238.232 204.711 234.106 206.482 229.9 205.628C227.911 205.224 226.397 205.13 225.624 205.024C224.8 200.813 221.357 184.296 219.205 176.739C220.507 177.271 222.148 177.825 223.854 178.396M243.357 255.364C242.796 254.548 241.532 252.622 240.959 251.448C240.476 250.457 239.745 247.595 239.148 245.256C238.862 244.134 238.606 243.133 238.423 242.515C237.858 240.611 238.32 238.57 239.362 236.972C240.218 235.659 239.184 234.715 238.153 233.774C237.929 233.57 237.705 233.365 237.501 233.158C236.777 232.421 236.27 231.942 235.763 231.463C231.666 231.906 224.577 236.287 223.826 237.268C227.867 241.14 238.229 256.074 241.469 257.885C241.517 257.9 241.872 257.95 241.918 257.964C242.288 258.091 242.658 258.218 242.932 258.475M243.357 255.364C243.303 256.508 243.169 257.564 242.932 258.475M197.515 226.455L197.51 226.451M197.515 226.455C197.513 226.454 197.512 226.452 197.51 226.451M197.515 226.455L197.518 226.457M197.515 226.455C197.516 226.456 197.517 226.457 197.518 226.457M224.196 178.51C224.082 178.472 223.968 178.434 223.854 178.396M224.196 178.51L223.854 178.396M197.51 226.451C197.202 226.188 196.944 225.968 196.747 225.798C200.199 226.003 209.194 229.338 212.635 231.349C216.937 233.864 219.882 236.117 222.457 238.244C223.393 239.017 233.848 248.985 239.331 257.073C238.45 256.708 237.105 256.139 236.378 255.5C233.188 252.697 226.929 249.576 222.747 248.472C218.565 247.368 212.677 241.273 209.352 237.446C206.75 234.451 201.652 230.001 198.657 227.431C198.231 227.066 197.847 226.739 197.519 226.459L197.518 226.457M203.244 218.402C203.861 219.917 206.931 225.231 207.752 225.121C208.401 225.034 208.553 212.357 209.364 204.038C211.929 199.404 217.117 202.716 218.226 203.097C219.161 203.419 223.418 205.485 225.396 206.672C228.19 214.963 232.951 228.674 234.026 229.768C231.252 231.45 225.132 235.155 222.845 236.517C215.272 232.042 198.991 222.746 194.448 221.357C194.346 221.036 194.255 220.749 194.17 220.516C187.708 202.842 182.343 188.462 179.46 180.802C179.733 179.189 183.963 180.143 186.441 179.549C188.244 184.804 198.064 207.334 203.244 218.402ZM217.638 176.013C217.887 177.119 220.535 183.212 221.588 187.926C222.406 191.59 223.945 199.692 224.785 204.854C221.812 204.495 214.439 198.487 213.094 196.99C212.018 195.793 209.633 191.401 208.574 189.355C205.764 180.619 196.909 158.143 196.033 154.88C195.006 150.46 195.876 148.068 197.563 141.833C200.083 149.927 214.836 172.514 217.638 176.013Z" stroke="black" shape-rendering="crispEdges"/>
</g>
<g filter="url(#filter3_diii_11_41)">
<path d="M197.909 203.274C197.669 199.988 195.741 192.309 195.294 191.393C194.937 190.66 190.241 188.49 187.938 187.496C186.487 186.541 183.242 184.207 181.872 182.516C181.086 181.547 180.245 180.366 179.486 179.3C178.59 178.043 177.809 176.946 177.369 176.547C176.554 175.81 173.6 170.22 173.068 168.664C172.911 168.203 172.272 167.69 171.433 167.194C171.227 167.071 171.008 166.95 170.781 166.831M197.909 203.274C197.009 201.369 195.003 196.798 194.174 193.754C193.078 193.044 190.983 192.342 188.99 191.675M197.909 203.274C198.003 204.569 198.323 206.037 198.714 207.418M170.781 166.831C169.445 166.128 167.832 165.495 166.804 165.142C163.895 172.535 157.617 187.499 155.783 188.212C153.949 188.925 163.248 210.657 168.127 221.433C176.24 228.59 193.562 243.004 197.941 243.408C199.632 243.564 200.31 243.107 200.7 241.609L200.7 241.607M170.781 166.831C167.855 173.703 161.412 187.557 160.523 189.075C161.481 190.488 164.502 192.768 165.423 192.129C165.434 191.035 169.918 174.377 169.918 174.377C170.233 170.825 169.935 170.896 170.279 168.824C170.286 168.052 170.412 167.692 170.781 166.831ZM198.714 207.418C199.314 209.54 200.083 211.459 200.462 212.236C200.963 213.262 202.414 220.584 203.077 224.117C201.667 224.956 199.007 227.237 199.639 229.65L199.657 229.719C200.123 231.497 201.125 236.214 200.965 239.665M198.714 207.418C197.754 208.037 195.18 209.142 192.555 208.608C191.314 208.355 190.369 208.296 189.887 208.229C189.372 205.6 187.22 195.287 185.875 190.568C186.688 190.9 187.711 191.247 188.776 191.604M200.965 239.665C200.615 239.155 199.825 237.952 199.468 237.219C199.166 236.6 198.709 234.813 198.336 233.353C198.157 232.652 197.997 232.027 197.883 231.641C197.53 230.452 197.818 229.178 198.467 228.18C199.001 227.361 198.356 226.771 197.712 226.183C197.572 226.056 197.433 225.928 197.305 225.798C196.854 225.338 196.537 225.039 196.221 224.74C193.664 225.015 189.242 227.749 188.773 228.362C191.296 230.78 197.765 240.107 199.787 241.238C199.817 241.248 200.039 241.279 200.068 241.288C200.299 241.367 200.529 241.447 200.7 241.607M200.965 239.665C200.931 240.379 200.848 241.039 200.7 241.607M172.353 221.603L172.35 221.601M172.353 221.603C172.352 221.603 172.351 221.602 172.35 221.601M172.353 221.603L172.355 221.605M172.353 221.603C172.354 221.604 172.354 221.604 172.355 221.605M188.99 191.675C188.918 191.651 188.847 191.627 188.776 191.604M188.99 191.675L188.776 191.604M172.35 221.601C172.158 221.437 171.997 221.299 171.874 221.193C174.028 221.322 179.641 223.407 181.789 224.663C184.474 226.234 186.312 227.642 187.919 228.97C188.504 229.453 195.03 235.68 198.453 240.731C197.903 240.503 197.064 240.147 196.61 239.748C194.619 237.997 190.713 236.047 188.103 235.356C185.493 234.666 181.818 230.859 179.742 228.469C178.118 226.598 174.936 223.819 173.066 222.213C172.8 221.985 172.56 221.781 172.356 221.606L172.355 221.605M175.926 216.577C176.312 217.523 178.228 220.842 178.74 220.773C179.145 220.719 179.237 212.804 179.741 207.61C181.341 204.717 184.579 206.786 185.271 207.025C185.854 207.226 188.511 208.517 189.745 209.259C191.491 214.436 194.465 222.998 195.136 223.681C193.405 224.731 189.588 227.042 188.161 227.892C183.435 225.097 173.273 219.288 170.438 218.42C170.375 218.219 170.318 218.04 170.265 217.895C166.228 206.858 162.877 197.878 161.076 193.095C161.246 192.087 163.885 192.684 165.432 192.314C166.558 195.596 172.691 209.665 175.926 216.577ZM184.897 190.114C185.052 190.805 186.706 194.61 187.365 197.553C187.876 199.841 188.838 204.9 189.364 208.123C187.508 207.899 182.907 204.145 182.067 203.211C181.395 202.463 179.906 199.72 179.245 198.442C177.489 192.987 171.958 178.951 171.41 176.914C170.769 174.154 171.311 172.661 172.362 168.768C173.936 173.823 183.148 187.929 184.897 190.114Z" stroke="black" shape-rendering="crispEdges"/>
</g>
<g filter="url(#filter4_i_11_41)">
<path d="M154.454 173.921C157.801 172.626 169.548 149.965 173.655 134.43C177.161 135.671 185.022 135.647 185.818 137.957C186.812 140.846 192.299 151.241 193.799 152.618C195.3 153.994 198.96 159.798 202.125 163.736C204.657 166.887 210.629 171.255 213.298 173.045C217.527 174.917 226.152 179.002 226.817 180.365C227.648 182.068 231.284 196.318 231.768 202.407C232.252 208.496 235.404 216.657 236.567 219.042C237.498 220.949 240.256 234.531 241.518 241.084C238.951 242.618 234.113 246.805 235.304 251.285L235.338 251.413C236.875 257.195 242.34 277.747 232.388 276.743C224.367 275.934 192.461 248.994 177.511 235.625C168.43 215.597 151.107 175.217 154.454 173.921Z" fill="url(#paint0_radial_11_41)"/>
</g>
<path d="M185.345 203.148C184.128 201.281 181.638 203.111 181.753 203.978C181.868 204.844 191.418 226.94 192.036 226.946C192.654 226.952 192.09 221.384 191.853 220.269C191.617 219.154 186.563 205.014 185.345 203.148Z" fill="url(#paint1_linear_11_41)"/>
<path d="M203.53 252.398L206.693 257.62L180.446 236.598L179.482 233.993L182.33 233.526L203.53 252.398Z" fill="url(#paint2_linear_11_41)"/>
<path d="M213.346 259.91L211.11 261.001L214.649 265.733L230.262 274.414L233.243 272.96L233.631 271.233L230.468 266.01L225.809 262.133L218.15 261.564L213.346 259.91Z" fill="url(#paint3_linear_11_41)"/>
<path d="M219.953 203.485C218.82 205.575 215.706 208.017 214.464 208.623C213.222 209.229 218.535 209.404 218.535 209.404C218.535 209.404 231.241 212.124 232.113 211.391C232.986 210.658 223.921 189.556 222.933 189.423C221.945 189.289 221.086 201.395 219.953 203.485Z" fill="url(#paint4_linear_11_41)"/>
<path d="M232.961 213.13C232.349 212.506 218.16 209.895 216.791 210.871C215.421 211.846 213.089 210.217 213.81 212.325C214.531 214.433 222.584 237.874 228.243 240.649C233.902 243.423 235.447 237.134 235.447 237.134C235.447 237.134 236.967 233.317 236.864 231.215C236.761 229.113 235.603 221.067 235.131 218.837C234.658 216.607 233.573 213.754 232.961 213.13Z" fill="url(#paint5_linear_11_41)"/>
<path d="M226.25 242.236C222.79 242.079 216.823 245.605 216.314 247.084C215.805 248.562 221.543 255.911 223.258 257.535C224.972 259.158 227.559 260.049 228.541 260.8C229.523 261.551 233.528 269.131 234.758 269.761C235.988 270.391 236.175 263.841 235.945 262.108C235.715 260.376 234.503 257.892 234.503 257.892L232.503 247.489C232.503 247.489 229.709 242.394 226.25 242.236Z" fill="url(#paint6_linear_11_41)"/>
<path d="M178.7 225.456L170.169 213.012L170.636 215.859L177.525 231.872L179.749 232.018L181.124 230.424L178.7 225.456Z" fill="url(#paint7_linear_11_41)"/>
<path d="M197.568 242.698C196.586 241.947 191.43 238.312 190.455 236.943C189.479 235.574 199.81 240.99 199.81 240.99C199.81 240.99 213.575 249.035 214.678 250.034C215.781 251.034 219.556 256.881 220.774 258.747C221.992 260.613 206.729 253.912 205.627 252.913C204.524 251.913 198.549 243.449 197.568 242.698Z" fill="url(#paint8_linear_11_41)"/>
<path d="M211.974 210.453C211.61 209.708 203.37 205.425 202.631 205.17C201.892 204.916 201.516 205.407 201.389 205.776C201.326 205.959 200.575 216.937 200.257 220.475C199.938 224.013 198.743 236.282 198.743 236.282C198.743 236.282 198.101 238.748 199.331 239.378C200.561 240.008 210.394 245.666 212.497 245.563C214.599 245.46 220.688 242.182 221.439 241.2C222.19 240.219 222.711 237.505 222.602 236.02C222.493 234.536 212.337 211.198 211.974 210.453Z" fill="url(#paint9_linear_11_41)"/>
<path d="M214.676 199.602C214.463 196.015 209.143 183.849 209.888 183.486C210.634 183.122 221.333 188.665 221.697 189.411C222.061 190.156 219.85 201.383 219.462 203.109C219.074 204.836 213.967 208.865 213.355 208.241C212.743 207.617 214.888 203.188 214.676 199.602Z" fill="url(#paint10_linear_11_41)"/>
<path d="M209.306 179.772C209.319 178.536 211.348 173.24 210.984 172.495C210.621 171.75 224.144 179.298 224.375 181.031C224.605 182.764 223.193 188.065 221.957 188.053C220.722 188.041 211.245 183.746 210.27 182.377C209.294 181.008 209.294 181.008 209.306 179.772L209.306 179.772Z" fill="url(#paint11_linear_11_41)"/>
<path d="M166.909 205.069C166.909 205.069 156.008 182.095 159.213 182.992C162.418 183.888 163.539 183.034 163.654 183.9C163.769 184.766 172.831 205.898 172.586 205.99L173.38 213.29L166.909 205.069Z" fill="url(#paint12_linear_11_41)"/>
<path d="M168.93 149.959L178.096 147.947C178.096 147.947 171.648 162.779 170.76 165.057C169.873 167.335 163.188 181.052 163.188 181.052L158.492 180.883L157.026 179.138L168.93 149.959Z" fill="url(#paint13_linear_11_41)"/>
<path d="M174.984 188.213C175.821 191.188 180.535 202.112 181.026 202.487C181.516 202.863 184.376 201.16 185.115 201.415C185.854 201.669 189.864 183.414 189.864 183.414C189.864 183.414 182.599 167.892 182.357 167.395C182.114 166.898 181.387 165.408 180.151 165.396C178.915 165.384 174.063 181.282 173.809 182.021C173.554 182.761 174.148 185.239 174.984 188.213Z" fill="url(#paint14_linear_11_41)"/>
<path d="M187.36 148.655C186.736 149.267 186.361 149.758 186.96 151.618C187.56 153.478 194.759 163.19 200.103 172.883C205.447 182.577 209.276 182.862 208.925 180.881C208.573 178.899 211.227 172.992 210.003 171.744C208.779 170.496 202.055 165.166 199.957 162.499C197.859 159.832 190.72 149.826 190.196 149.425C189.214 148.673 187.984 148.043 187.36 148.655Z" fill="url(#paint15_linear_11_41)"/>
<path d="M165.181 179.465C165.181 179.465 178.466 148.074 178.714 147.953C178.963 147.832 181.804 147.983 183.525 148.989C185.246 149.994 184.355 152.582 184.355 152.582L174.717 177.58L172.664 185.348L166.272 181.701L165.181 179.465Z" fill="url(#paint16_linear_11_41)"/>
<path d="M185.198 167.546C183.544 159.743 184.852 152.339 185.961 152.721C187.07 153.102 198.607 174.229 199.946 176.343C201.285 178.457 207.416 183.462 208.64 184.71C209.864 185.958 212.743 195.009 212.743 195.009C212.743 195.009 213.773 203.425 212.501 207.121C211.229 210.817 205.097 205.812 200.571 200.947C196.045 196.082 186.853 175.35 185.198 167.546Z" fill="url(#paint17_linear_11_41)"/>
<path d="M185.727 202.039C185.854 201.669 189.61 184.153 190.713 185.153C191.815 186.152 200.274 206.013 200.274 206.013C200.274 206.013 199.113 236.409 197.259 236.391C195.405 236.373 191.896 228.551 192.647 227.57C193.399 226.588 192.714 220.772 192.477 219.657C192.241 218.542 185.6 202.408 185.727 202.039Z" fill="url(#paint18_linear_11_41)"/>
<path d="M173.021 186.711C171.307 185.087 166.106 182.724 165.139 183.791C164.172 184.858 165.836 188.371 165.836 188.371L179.391 218.046L179.815 225.22L182.118 229.939L194.429 235.004C194.429 235.004 174.736 188.334 173.021 186.711Z" fill="url(#paint19_linear_11_41)"/>
<path d="M174.873 136.296L169.184 149.22C169.184 149.22 176.739 147.686 178.472 147.456C180.205 147.226 180.768 140.186 179.677 137.95C178.587 135.714 177.72 135.829 177.72 135.829L174.873 136.296Z" fill="url(#paint20_linear_11_41)"/>
<path d="M179.546 147.137C180.748 146.448 180.422 137.586 180.624 138C180.826 138.414 186.421 143.578 186.421 143.578L184.155 147.759C184.155 147.759 178.345 147.826 179.546 147.137Z" fill="url(#paint21_linear_11_41)"/>
<g filter="url(#filter5_diii_11_41)">
<path d="M226.826 200.923C226.444 195.661 223.359 183.363 222.644 181.896C222.071 180.722 214.547 177.249 210.857 175.66C208.532 174.13 203.333 170.395 201.138 167.688C199.879 166.136 198.532 164.245 197.316 162.538C195.882 160.525 194.631 158.769 193.925 158.13C192.621 156.95 187.889 147.999 187.038 145.508C186.786 144.769 185.763 143.948 184.419 143.153C184.088 142.958 183.737 142.764 183.374 142.573M226.826 200.923C225.385 197.873 222.173 190.553 220.846 185.679C219.091 184.541 215.733 183.419 212.54 182.352M226.826 200.923C226.976 202.998 227.487 205.348 228.113 207.56M183.374 142.573C181.233 141.448 178.649 140.435 177.001 139.871C172.334 151.713 162.264 175.683 159.324 176.827C156.385 177.971 171.273 212.77 179.085 230.026C192.083 241.484 219.834 264.559 226.852 265.204C229.562 265.452 230.648 264.719 231.274 262.319L231.275 262.317M183.374 142.573C178.68 153.581 168.346 175.775 166.92 178.207C168.454 180.468 173.294 184.118 174.77 183.095C174.789 181.342 181.986 154.66 181.986 154.66C182.493 148.971 182.015 149.084 182.568 145.766C182.58 144.53 182.782 143.952 183.374 142.573ZM228.113 207.56C229.074 210.959 230.306 214.031 230.913 215.275C231.714 216.918 234.035 228.645 235.095 234.303C232.836 235.647 228.571 239.302 229.582 243.167L229.611 243.278C230.356 246.125 231.96 253.679 231.7 259.206M228.113 207.56C226.575 208.552 222.449 210.324 218.243 209.47C216.254 209.066 214.74 208.972 213.967 208.865C213.143 204.655 209.7 188.138 207.549 180.581C208.851 181.113 210.491 181.667 212.197 182.238M231.7 259.206C231.139 258.39 229.875 256.464 229.303 255.29C228.819 254.299 228.088 251.437 227.491 249.098C227.205 247.976 226.949 246.974 226.766 246.357C226.202 244.453 226.663 242.412 227.705 240.814C228.561 239.501 227.527 238.557 226.496 237.616C226.272 237.412 226.048 237.207 225.844 236.999C225.121 236.263 224.614 235.784 224.107 235.305C220.009 235.748 212.921 240.129 212.169 241.11C216.211 244.981 226.572 259.916 229.812 261.727C229.86 261.742 230.215 261.792 230.262 261.806C230.631 261.933 231.001 262.06 231.275 262.317M231.7 259.206C231.646 260.35 231.513 261.406 231.275 262.317M185.858 230.297L185.853 230.293M185.858 230.297C185.856 230.295 185.855 230.294 185.853 230.293M185.858 230.297L185.861 230.299M185.858 230.297C185.859 230.298 185.86 230.298 185.861 230.299M212.54 182.352C212.425 182.314 212.311 182.276 212.197 182.238M212.54 182.352L212.197 182.238M185.853 230.293C185.546 230.03 185.288 229.81 185.09 229.639C188.542 229.845 197.537 233.18 200.979 235.191C205.28 237.705 208.225 239.959 210.8 242.086C211.736 242.859 222.191 252.827 227.675 260.915C226.793 260.55 225.448 259.981 224.721 259.342C221.532 256.539 215.272 253.418 211.09 252.314C206.908 251.21 201.02 245.115 197.696 241.288C195.093 238.293 189.996 233.843 187 231.273C186.574 230.908 186.19 230.58 185.862 230.301L185.861 230.299M191.587 222.244C192.204 223.759 195.274 229.073 196.095 228.963C196.744 228.876 196.896 216.199 197.708 207.88C200.273 203.246 205.461 206.558 206.569 206.939C207.504 207.261 211.761 209.327 213.739 210.514C216.533 218.804 221.294 232.516 222.369 233.61C219.595 235.292 213.475 238.997 211.188 240.359C203.615 235.884 187.334 226.588 182.791 225.199C182.69 224.878 182.598 224.591 182.513 224.358C176.052 206.684 170.686 192.303 167.803 184.644C168.077 183.03 172.306 183.984 174.784 183.391C176.587 188.646 186.407 211.176 191.587 222.244ZM205.981 179.855C206.23 180.961 208.878 187.054 209.931 191.768C210.75 195.432 212.289 203.534 213.129 208.695C210.155 208.337 202.782 202.329 201.437 200.832C200.361 199.635 197.976 195.243 196.918 193.196C194.107 184.461 185.252 161.985 184.376 158.722C183.35 154.302 184.219 151.91 185.906 145.675C188.426 153.769 203.18 176.356 205.981 179.855Z" stroke="black" shape-rendering="crispEdges"/>
</g>
<path d="M158.191 155.991L159.11 153.385M159.953 155.148L157.347 154.229" stroke="white"/>
<path d="M247.09 267.613L248.009 265.006M248.853 266.769L246.246 265.85" stroke="white"/>
<path d="M226.824 165.561L227.744 162.954M228.587 164.717L225.981 163.798" stroke="white"/>
<path d="M204.107 213.547L205.026 210.94M205.869 212.703L203.263 211.784" stroke="white"/>
<defs>
<filter id="filter0_f_11_41" x="0.767273" y="0.728027" width="408.037" height="409.309" filterUnits="userSpaceOnUse" color-interpolation-filters="sRGB">
<feFlood flood-opacity="0" result="BackgroundImageFix"/>
<feBlend mode="normal" in="SourceGraphic" in2="BackgroundImageFix" result="shape"/>
<feGaussianBlur stdDeviation="75" result="effect1_foregroundBlur_11_41"/>
</filter>
<filter id="filter1_f_11_41" x="27.7336" y="8.82333" width="354.977" height="392.221" filterUnits="userSpaceOnUse" color-interpolation-filters="sRGB">
<feFlood flood-opacity="0" result="BackgroundImageFix"/>
<feBlend mode="normal" in="SourceGraphic" in2="BackgroundImageFix" result="shape"/>
<feGaussianBlur stdDeviation="75" result="effect1_foregroundBlur_11_41"/>
</filter>
<filter id="filter2_diii_11_41" x="169.102" y="135.401" width="79.205" height="128.507" filterUnits="userSpaceOnUse" color-interpolation-filters="sRGB">
<feFlood flood-opacity="0" result="BackgroundImageFix"/>
<feColorMatrix in="SourceAlpha" type="matrix" values="0 0 0 0 0 0 0 0 0 0 0 0 0 0 0 0 0 0 127 0" result="hardAlpha"/>
<feOffset dy="1"/>
<feGaussianBlur stdDeviation="0.5"/>
<feComposite in2="hardAlpha" operator="out"/>
<feColorMatrix type="matrix" values="0 0 0 0 1 0 0 0 0 1 0 0 0 0 1 0 0 0 0.25 0"/>
<feBlend mode="normal" in2="BackgroundImageFix" result="effect1_dropShadow_11_41"/>
<feBlend mode="normal" in="SourceGraphic" in2="effect1_dropShadow_11_41" result="shape"/>
<feColorMatrix in="SourceAlpha" type="matrix" values="0 0 0 0 0 0 0 0 0 0 0 0 0 0 0 0 0 0 127 0" result="hardAlpha"/>
<feOffset dx="2" dy="1"/>
<feComposite in2="hardAlpha" operator="arithmetic" k2="-1" k3="1"/>
<feColorMatrix type="matrix" values="0 0 0 0 1 0 0 0 0 1 0 0 0 0 1 0 0 0 0.36 0"/>
<feBlend mode="normal" in2="shape" result="effect2_innerShadow_11_41"/>
<feColorMatrix in="SourceAlpha" type="matrix" values="0 0 0 0 0 0 0 0 0 0 0 0 0 0 0 0 0 0 127 0" result="hardAlpha"/>
<feOffset dy="3"/>
<feComposite in2="hardAlpha" operator="arithmetic" k2="-1" k3="1"/>
<feColorMatrix type="matrix" values="0 0 0 0 1 0 0 0 0 1 0 0 0 0 1 0 0 0 0.25 0"/>
<feBlend mode="normal" in2="effect2_innerShadow_11_41" result="effect3_innerShadow_11_41"/>
<feColorMatrix in="SourceAlpha" type="matrix" values="0 0 0 0 0 0 0 0 0 0 0 0 0 0 0 0 0 0 127 0" result="hardAlpha"/>
<feOffset dx="1" dy="1"/>
<feGaussianBlur stdDeviation="0.5"/>
<feComposite in2="hardAlpha" operator="arithmetic" k2="-1" k3="1"/>
<feColorMatrix type="matrix" values="0 0 0 0 1 0 0 0 0 1 0 0 0 0 1 0 0 0 1 0"/>
<feBlend mode="normal" in2="effect3_innerShadow_11_41" result="effect4_innerShadow_11_41"/>
</filter>
<filter id="filter3_diii_11_41" x="154.047" y="164.514" width="50.5852" height="81.4234" filterUnits="userSpaceOnUse" color-interpolation-filters="sRGB">
<feFlood flood-opacity="0" result="BackgroundImageFix"/>
<feColorMatrix in="SourceAlpha" type="matrix" values="0 0 0 0 0 0 0 0 0 0 0 0 0 0 0 0 0 0 127 0" result="hardAlpha"/>
<feOffset dy="1"/>
<feGaussianBlur stdDeviation="0.5"/>
<feComposite in2="hardAlpha" operator="out"/>
<feColorMatrix type="matrix" values="0 0 0 0 1 0 0 0 0 1 0 0 0 0 1 0 0 0 0.25 0"/>
<feBlend mode="normal" in2="BackgroundImageFix" result="effect1_dropShadow_11_41"/>
<feBlend mode="normal" in="SourceGraphic" in2="effect1_dropShadow_11_41" result="shape"/>
<feColorMatrix in="SourceAlpha" type="matrix" values="0 0 0 0 0 0 0 0 0 0 0 0 0 0 0 0 0 0 127 0" result="hardAlpha"/>
<feOffset dx="2" dy="1"/>
<feComposite in2="hardAlpha" operator="arithmetic" k2="-1" k3="1"/>
<feColorMatrix type="matrix" values="0 0 0 0 1 0 0 0 0 1 0 0 0 0 1 0 0 0 0.36 0"/>
<feBlend mode="normal" in2="shape" result="effect2_innerShadow_11_41"/>
<feColorMatrix in="SourceAlpha" type="matrix" values="0 0 0 0 0 0 0 0 0 0 0 0 0 0 0 0 0 0 127 0" result="hardAlpha"/>
<feOffset dy="3"/>
<feComposite in2="hardAlpha" operator="arithmetic" k2="-1" k3="1"/>
<feColorMatrix type="matrix" values="0 0 0 0 1 0 0 0 0 1 0 0 0 0 1 0 0 0 0.25 0"/>
<feBlend mode="normal" in2="effect2_innerShadow_11_41" result="effect3_innerShadow_11_41"/>
<feColorMatrix in="SourceAlpha" type="matrix" values="0 0 0 0 0 0 0 0 0 0 0 0 0 0 0 0 0 0 127 0" result="hardAlpha"/>
<feOffset dx="1" dy="1"/>
<feGaussianBlur stdDeviation="0.5"/>
<feComposite in2="hardAlpha" operator="arithmetic" k2="-1" k3="1"/>
<feColorMatrix type="matrix" values="0 0 0 0 1 0 0 0 0 1 0 0 0 0 1 0 0 0 1 0"/>
<feBlend mode="normal" in2="effect3_innerShadow_11_41" result="effect4_innerShadow_11_41"/>
</filter>
<filter id="filter4_i_11_41" x="154.031" y="134.43" width="88.4879" height="143.349" filterUnits="userSpaceOnUse" color-interpolation-filters="sRGB">
<feFlood flood-opacity="0" result="BackgroundImageFix"/>
<feBlend mode="normal" in="SourceGraphic" in2="BackgroundImageFix" result="shape"/>
<feColorMatrix in="SourceAlpha" type="matrix" values="0 0 0 0 0 0 0 0 0 0 0 0 0 0 0 0 0 0 127 0" result="hardAlpha"/>
<feOffset dx="1" dy="1"/>
<feGaussianBlur stdDeviation="2"/>
<feComposite in2="hardAlpha" operator="arithmetic" k2="-1" k3="1"/>
<feColorMatrix type="matrix" values="0 0 0 0 0.100781 0 0 0 0 0.0276215 0 0 0 0 0.179167 0 0 0 0.41 0"/>
<feBlend mode="normal" in2="shape" result="effect1_innerShadow_11_41"/>
</filter>
<filter id="filter5_diii_11_41" x="157.445" y="139.243" width="79.205" height="128.507" filterUnits="userSpaceOnUse" color-interpolation-filters="sRGB">
<feFlood flood-opacity="0" result="BackgroundImageFix"/>
<feColorMatrix in="SourceAlpha" type="matrix" values="0 0 0 0 0 0 0 0 0 0 0 0 0 0 0 0 0 0 127 0" result="hardAlpha"/>
<feOffset dy="1"/>
<feGaussianBlur stdDeviation="0.5"/>
<feComposite in2="hardAlpha" operator="out"/>
<feColorMatrix type="matrix" values="0 0 0 0 1 0 0 0 0 1 0 0 0 0 1 0 0 0 0.25 0"/>
<feBlend mode="normal" in2="BackgroundImageFix" result="effect1_dropShadow_11_41"/>
<feBlend mode="normal" in="SourceGraphic" in2="effect1_dropShadow_11_41" result="shape"/>
<feColorMatrix in="SourceAlpha" type="matrix" values="0 0 0 0 0 0 0 0 0 0 0 0 0 0 0 0 0 0 127 0" result="hardAlpha"/>
<feOffset dx="2" dy="1"/>
<feComposite in2="hardAlpha" operator="arithmetic" k2="-1" k3="1"/>
<feColorMatrix type="matrix" values="0 0 0 0 1 0 0 0 0 1 0 0 0 0 1 0 0 0 0.36 0"/>
<feBlend mode="normal" in2="shape" result="effect2_innerShadow_11_41"/>
<feColorMatrix in="SourceAlpha" type="matrix" values="0 0 0 0 0 0 0 0 0 0 0 0 0 0 0 0 0 0 127 0" result="hardAlpha"/>
<feOffset dy="3"/>
<feComposite in2="hardAlpha" operator="arithmetic" k2="-1" k3="1"/>
<feColorMatrix type="matrix" values="0 0 0 0 1 0 0 0 0 1 0 0 0 0 1 0 0 0 0.25 0"/>
<feBlend mode="normal" in2="effect2_innerShadow_11_41" result="effect3_innerShadow_11_41"/>
<feColorMatrix in="SourceAlpha" type="matrix" values="0 0 0 0 0 0 0 0 0 0 0 0 0 0 0 0 0 0 127 0" result="hardAlpha"/>
<feOffset dx="1" dy="1"/>
<feGaussianBlur stdDeviation="0.5"/>
<feComposite in2="hardAlpha" operator="arithmetic" k2="-1" k3="1"/>
<feColorMatrix type="matrix" values="0 0 0 0 1 0 0 0 0 1 0 0 0 0 1 0 0 0 1 0"/>
<feBlend mode="normal" in2="effect3_innerShadow_11_41" result="effect4_innerShadow_11_41"/>
</filter>
<radialGradient id="paint0_radial_11_41" cx="0" cy="0" r="1" gradientUnits="userSpaceOnUse" gradientTransform="translate(215.32 234.96) rotate(58.367) scale(56.3781 69.7979)">
<stop stop-color="#E6A6F5"/>
<stop offset="1" stop-color="white"/>
</radialGradient>
<linearGradient id="paint1_linear_11_41" x1="191.43" y1="224.541" x2="196.537" y2="221.36" gradientUnits="userSpaceOnUse">
<stop stop-color="#B38EC4"/>
<stop offset="1" stop-color="#C2B7CE"/>
</linearGradient>
<linearGradient id="paint2_linear_11_41" x1="205.118" y1="254.391" x2="201.394" y2="231.851" gradientUnits="userSpaceOnUse">
<stop stop-color="#8141AF"/>
<stop offset="1" stop-color="#8B61A3"/>
</linearGradient>
<linearGradient id="paint3_linear_11_41" x1="233.146" y1="270.239" x2="225.918" y2="255.777" gradientUnits="userSpaceOnUse">
<stop stop-color="#A05BC8"/>
<stop offset="1" stop-color="#64318E"/>
</linearGradient>
<linearGradient id="paint4_linear_11_41" x1="219.783" y1="208.181" x2="229.238" y2="204.197" gradientUnits="userSpaceOnUse">
<stop stop-color="#CB8BE2"/>
<stop offset="0.458333" stop-color="#B856E1"/>
<stop offset="1" stop-color="#A272B0"/>
</linearGradient>
<linearGradient id="paint5_linear_11_41" x1="230.006" y1="237.329" x2="241.311" y2="223.509" gradientUnits="userSpaceOnUse">
<stop stop-color="#DE9BFA"/>
<stop offset="1" stop-color="#BB8DD8"/>
</linearGradient>
<linearGradient id="paint6_linear_11_41" x1="229.069" y1="269.446" x2="242.996" y2="256.728" gradientUnits="userSpaceOnUse">
<stop stop-color="#D288E1"/>
<stop offset="1" stop-color="#D98DEF"/>
</linearGradient>
<linearGradient id="paint7_linear_11_41" x1="177.501" y1="230.804" x2="181.962" y2="228.011" gradientUnits="userSpaceOnUse">
<stop stop-color="#B085D5"/>
<stop offset="1" stop-color="#BCA1CC"/>
</linearGradient>
<linearGradient id="paint8_linear_11_41" x1="219.319" y1="255.766" x2="214.711" y2="234.457" gradientUnits="userSpaceOnUse">
<stop stop-color="#D78AEE"/>
<stop offset="1" stop-color="#61248D"/>
</linearGradient>
<linearGradient id="paint9_linear_11_41" x1="205.055" y1="244.783" x2="227.028" y2="222.783" gradientUnits="userSpaceOnUse">
<stop stop-color="#B15ADF"/>
<stop offset="1" stop-color="#8732B4"/>
</linearGradient>
<linearGradient id="paint10_linear_11_41" x1="216.348" y1="205.551" x2="226.771" y2="196.071" gradientUnits="userSpaceOnUse">
<stop stop-color="#B55ED3"/>
<stop offset="1" stop-color="#9532B1"/>
</linearGradient>
<linearGradient id="paint11_linear_11_41" x1="221.86" y1="185.333" x2="215.75" y2="173.903" gradientUnits="userSpaceOnUse">
<stop stop-color="#9F69BC"/>
<stop offset="0.671814" stop-color="#9A7BB4"/>
<stop offset="0.973958" stop-color="#BDADDE"/>
</linearGradient>
<linearGradient id="paint12_linear_11_41" x1="170.593" y1="211.02" x2="177.603" y2="206.63" gradientUnits="userSpaceOnUse">
<stop stop-color="#C0A7CF"/>
<stop offset="1" stop-color="#A693B6"/>
</linearGradient>
<linearGradient id="paint13_linear_11_41" x1="161.259" y1="179.233" x2="177.602" y2="147.456" gradientUnits="userSpaceOnUse">
<stop stop-color="#87519F"/>
<stop offset="0.557868" stop-color="#9053B2"/>
<stop offset="1" stop-color="#8652A0"/>
</linearGradient>
<linearGradient id="paint14_linear_11_41" x1="182.013" y1="202.621" x2="207.174" y2="160.932" gradientUnits="userSpaceOnUse">
<stop stop-color="#8735A4"/>
<stop offset="0.462159" stop-color="#A46AB9"/>
</linearGradient>
<linearGradient id="paint15_linear_11_41" x1="208.603" y1="175.809" x2="199.958" y2="144.947" gradientUnits="userSpaceOnUse">
<stop stop-color="#9F6AB0"/>
<stop offset="0.987" stop-color="#743F9B"/>
</linearGradient>
<linearGradient id="paint16_linear_11_41" x1="173.197" y1="181.397" x2="191.876" y2="157.835" gradientUnits="userSpaceOnUse">
<stop stop-color="#6A2286"/>
<stop offset="1" stop-color="#350956"/>
</linearGradient>
<linearGradient id="paint17_linear_11_41" x1="210.665" y1="205.249" x2="222.766" y2="191.568" gradientUnits="userSpaceOnUse">
<stop stop-color="#AF43D7"/>
<stop offset="1" stop-color="#550387"/>
</linearGradient>
<linearGradient id="paint18_linear_11_41" x1="196.886" y1="231.263" x2="214.616" y2="217.814" gradientUnits="userSpaceOnUse">
<stop stop-color="#CCACD5"/>
<stop offset="1" stop-color="#B985CA"/>
</linearGradient>
<linearGradient id="paint19_linear_11_41" x1="187.437" y1="229.497" x2="197.565" y2="221.333" gradientUnits="userSpaceOnUse">
<stop stop-color="#B162D7"/>
<stop offset="1" stop-color="#7316A3"/>
</linearGradient>
<linearGradient id="paint20_linear_11_41" x1="171.159" y1="149.486" x2="178.465" y2="135.466" gradientUnits="userSpaceOnUse">
<stop stop-color="#8964A9"/>
<stop offset="1" stop-color="#755A8D"/>
</linearGradient>
<linearGradient id="paint21_linear_11_41" x1="180.811" y1="148.25" x2="187.253" y2="140.578" gradientUnits="userSpaceOnUse">
<stop stop-color="#8964A9"/>
<stop offset="1" stop-color="#755A8D"/>
</linearGradient>
</defs>
</svg>
